<svg xmlns="http://www.w3.org/2000/svg" width="631.239" height="491.28" viewBox="0 0 631.239 491.28">
  <g id="undraw_pay_online_b1hk_1_"  transform="translate(0 0)">
    <path id="pt"  d="M965.228,715.254c-.046-.2-4.495-20.49,4.591-37.34s28.48-24.28,28.675-24.353l.886-.332.209.924c.046.2,4.495,20.49-4.591,37.34s-28.48,24.28-28.675,24.353l-.887.332Zm32.937-59.771c-3.885,1.671-19.217,8.985-26.891,23.216s-5.359,31.063-4.621,35.225c3.883-1.667,19.21-8.97,26.891-23.216s5.358-31.06,4.623-35.225Z" transform="translate(-409.071 -258.367)" fill="#3f3d56"/>
    <path id="pt"  d="M988.63,696.509c-16.328,9.823-22.616,29.335-22.616,29.335s20.184,3.585,36.512-6.238,22.616-29.335,22.616-29.335S1004.956,686.686,988.63,696.509Z" transform="translate(-409.646 -269.294)" fill="#d0cde1"/>
    <path id="pt" d="M412.472,457.1c-1.942,0-3.9-.031-5.828-.091l.044-1.4c2.764.086,5.586.11,8.363.072l.019,1.4Q413.772,457.1,412.472,457.1Zm11.019-.325-.082-1.4c2.768-.163,5.573-.393,8.334-.682l.146,1.391c-2.783.292-5.608.524-8.4.687Zm-25.261-.218c-2.792-.214-5.613-.494-8.385-.834l.171-1.389c2.751.337,5.551.616,8.321.828Zm42.017-1.539-.21-1.383c2.751-.418,5.523-.9,8.237-1.441l.273,1.372c-2.735.544-5.528,1.032-8.3,1.453Zm-58.74-.512c-2.758-.467-5.542-1-8.274-1.6l.3-1.368c2.711.589,5.474,1.122,8.211,1.586Zm75.264-2.773-.336-1.359c2.7-.668,5.415-1.406,8.07-2.193l.4,1.342c-2.676.794-5.411,1.537-8.132,2.209Zm-91.73-.8c-2.705-.72-5.428-1.511-8.092-2.354l.422-1.334c2.644.836,5.345,1.621,8.029,2.335Zm107.883-3.99-.459-1.322c2.62-.911,5.255-1.9,7.834-2.928l.519,1.3c-2.6,1.039-5.253,2.032-7.894,2.95Zm-123.97-1.1c-2.627-.966-5.271-2.008-7.857-3.1l.543-1.29c2.566,1.081,5.19,2.115,7.8,3.074Zm139.6-5.156-.58-1.274c2.516-1.143,5.046-2.364,7.518-3.628l.637,1.247c-2.492,1.273-5.04,2.5-7.576,3.655Zm14.975-7.655-.693-1.215c2.413-1.377,4.822-2.825,7.159-4.3l.748,1.182c-2.355,1.49-4.782,2.949-7.214,4.336Zm14.223-9-.8-1.147c2.272-1.588,4.54-3.25,6.74-4.941l.853,1.11c-2.217,1.7-4.5,3.379-6.792,4.978Zm-213.324-1.971c-2.259-1.641-4.516-3.36-6.708-5.11l.873-1.093c2.175,1.737,4.415,3.442,6.656,5.07Zm226.674-8.29-.9-1.07c2.118-1.787,4.226-3.649,6.266-5.536l.95,1.028c-2.055,1.9-4.179,3.777-6.313,5.578Zm-239.848-2.229c-2.1-1.842-4.194-3.759-6.212-5.7l.969-1.01c2,1.923,4.077,3.825,6.165,5.654Zm252.216-9.21-1-.983c1.952-1.979,3.884-4.026,5.739-6.085l1.04.936c-1.87,2.076-3.815,4.138-5.783,6.131Zm-264.374-2.458c-1.93-2.03-3.837-4.128-5.666-6.236l1.057-.917c1.815,2.092,3.707,4.174,5.623,6.188Zm275.655-10.063-1.081-.888c1.764-2.147,3.5-4.362,5.163-6.585l1.121.838C558.276,385.422,556.526,387.655,554.748,389.817Zm-286.7-2.657c-1.733-2.19-3.44-4.452-5.073-6.721l1.136-.817c1.621,2.252,3.315,4.5,5.035,6.671Zm296.794-10.845-1.158-.786c1.561-2.3,3.09-4.664,4.543-7.032l1.193.733C567.959,371.616,566.419,374,564.846,376.315ZM258.219,373.5c-1.525-2.338-3.018-4.744-4.437-7.152l1.206-.711c1.409,2.39,2.89,4.778,4.4,7.1Zm315.456-11.555-1.225-.677c1.344-2.432,2.649-4.929,3.881-7.423l1.255.621c-1.241,2.512-2.557,5.028-3.911,7.478Zm7.475-15.131-1.282-.562c1.115-2.547,2.186-5.156,3.183-7.753l1.307.5c-1,2.617-2.085,5.246-3.208,7.813ZM242.5,343.79c-1.073-2.575-2.1-5.21-3.054-7.831l1.316-.478c.946,2.6,1.966,5.216,3.03,7.771Zm344.7-12.748-1.329-.44c.873-2.632,1.7-5.322,2.449-8l1.348.379c-.758,2.694-1.589,5.405-2.469,8.058Zm-350.448-3.067c-.833-2.667-1.615-5.392-2.326-8.1l1.354-.355c.7,2.687,1.482,5.391,2.308,8.038Zm355.01-13.153L590.4,314.5c.627-2.7,1.2-5.452,1.7-8.187l1.376.253C592.972,309.327,592.395,312.1,591.763,314.822Zm-359.284-3.145c-.584-2.734-1.112-5.519-1.57-8.279l1.381-.23c.455,2.74.979,5.5,1.558,8.216Zm362.334-13.425-1.387-.19c.377-2.741.694-5.536.945-8.308l1.394.126C595.512,292.672,595.192,295.489,594.813,298.251Zm-365.093-3.2c-.33-2.771-.6-5.592-.806-8.387l1.4-.1c.2,2.774.472,5.574.8,8.324Zm366.615-13.583-1.4-.063c.124-2.773.188-5.586.188-8.36h1.4C596.525,275.844,596.461,278.679,596.335,281.472Zm-367.844-3.22c-.048-1.716-.072-3.467-.072-5.2q0-1.616.028-3.225l1.4.025q-.028,1.6-.028,3.2c0,1.723.025,3.461.072,5.165Zm1.687-16.759-1.4-.087c.175-2.8.416-5.621.716-8.4l1.391.151c-.3,2.753-.537,5.557-.711,8.332Zm364.043-8.539c-.28-2.759-.664-4.1-1.07-6.852l1.385-.2c.409,2.768.759,4.881,1.042,7.662ZM231.978,244.87l-1.383-.214c.429-2.769.927-5.56,1.481-8.3l1.372.277c-.549,2.715-1.044,5.484-1.469,8.232Zm359.76-7.009c-.534-2.73-1.136-5.479-1.791-8.169l1.36-.331c.66,2.71,1.266,5.48,1.8,8.231Zm-356.444-9.379-1.358-.34c.68-2.711,1.432-5.444,2.238-8.125l1.34.4C236.715,223.081,235.969,225.792,235.294,228.482Zm352.49-6.868c-.78-2.665-1.633-5.346-2.535-7.969l1.323-.455c.909,2.643,1.769,5.345,2.555,8.03Zm-347.671-9.168-1.32-.464c.93-2.646,1.934-5.3,2.985-7.9l1.3.525c-1.043,2.577-2.04,5.216-2.962,7.841ZM582.348,205.8c-1.021-2.576-2.115-5.161-3.25-7.684l1.277-.575c1.145,2.542,2.246,5.147,3.275,7.742Zm-335.954-8.89-1.272-.584c1.169-2.546,2.413-5.1,3.7-7.588l1.244.642C248.789,191.853,247.554,194.386,246.394,196.913Zm329.1-6.323c-1.253-2.471-2.58-4.947-3.945-7.358l1.218-.69c1.376,2.43,2.712,4.925,3.975,7.415Zm-321.422-8.558-1.213-.7c1.4-2.424,2.869-4.851,4.377-7.212l1.18.753C256.923,177.217,255.461,179.625,254.076,182.031Zm313.2-5.973c-1.479-2.354-3.028-4.7-4.6-6.972l1.15-.8c1.588,2.289,3.148,4.652,4.638,7.025Zm-304.191-8.134-1.144-.806c1.614-2.288,3.3-4.569,5.015-6.78l1.106.858C266.36,163.389,264.686,165.652,263.085,167.924Zm294.67-5.593c-1.687-2.209-3.443-4.405-5.222-6.527l1.073-.9c1.792,2.138,3.562,4.351,5.262,6.577ZM273.339,154.7l-1.065-.908c1.811-2.127,3.7-4.244,5.609-6.292l1.023.955C277.01,150.492,275.137,152.592,273.339,154.7Zm273.679-5.184c-1.88-2.047-3.831-4.075-5.8-6.028l.987-.993c1.981,1.969,3.945,4.012,5.84,6.074ZM284.75,142.476l-.979-1c2-1.958,4.072-3.894,6.155-5.753l.932,1.044c-2.067,1.845-4.122,3.766-6.109,5.71Zm250.409-4.745c-2.06-1.869-4.188-3.712-6.323-5.478l.893-1.078c2.151,1.78,4.295,3.637,6.371,5.52ZM297.219,131.34l-.884-1.085c2.165-1.763,4.4-3.5,6.65-5.168l.834,1.124c-2.231,1.654-4.451,3.38-6.6,5.129Zm13.424-9.95-.781-1.161c2.317-1.559,4.7-3.085,7.089-4.538l.727,1.2c-2.368,1.441-4.736,2.957-7.035,4.5Zm14.268-8.678-.672-1.228c2.451-1.341,4.964-2.642,7.47-3.868l.615,1.257C329.838,110.089,327.344,111.381,324.911,112.712Zm168.916-3.243c-2.49-1.241-5.042-2.439-7.583-3.563l.566-1.28c2.561,1.132,5.132,2.34,7.641,3.59ZM339.9,105.38l-.556-1.284c2.561-1.11,5.182-2.175,7.788-3.165l.5,1.309C345.045,103.221,342.445,104.278,339.9,105.38ZM478.5,102.7c-2.592-1-5.244-1.964-7.884-2.85l.446-1.327c2.66.893,5.333,1.859,7.944,2.872ZM355.515,99.452l-.436-1.33c2.66-.872,5.374-1.693,8.066-2.44l.374,1.348c-2.672.741-5.365,1.555-8,2.421Zm107.117-2.081c-2.669-.761-5.392-1.47-8.092-2.106l.321-1.362c2.721.641,5.465,1.356,8.155,2.122ZM371.626,94.98l-.312-1.364c2.727-.623,5.5-1.191,8.256-1.687l.249,1.377C377.088,93.8,374.332,94.362,371.626,94.98Zm74.733-1.446c-2.725-.512-5.5-.967-8.252-1.353l.194-1.386c2.771.389,5.569.848,8.316,1.363ZM388.08,92.011l-.185-1.387c2.771-.37,5.588-.681,8.375-.923l.122,1.394C393.626,91.335,390.831,91.644,388.08,92.011Zm41.721-.8c-2.757-.26-5.563-.46-8.341-.594l.068-1.4c2.8.136,5.626.337,8.4.6Zm-25.064-.65-.059-1.4c2.572-.107,5.194-.162,7.793-.163h.634l0,1.4h-.629c-2.579,0-5.182.055-7.734.161Z" transform="translate(-188.236 -88.996)" fill="#3f3d56"/>
    <rect id="pt" width="512.969" height="1.4" transform="translate(118.27 456.488)" fill="#3f3d56"/>
    <path id="pt" d="M722,405.013l7,108.472s16.8,42.689,16.1,83.279c0,0-6.3,16.1-1.4,18.9s7.7,4.9,4.9,7-4.9,7-2.8,8.4,2.8,3.5,2.1,3.5H726.9s4.2-10.5-2.1-13.3-2.8-9.8-2.8-9.8L675.113,474.295,638.022,600.263s6.3,4.2,1.4,6.3-7-2.1-4.9,2.1-.7,6.3-.7,7-20.995-2.1-20.995-2.1,10.5-9.1,5.6-11.2-7-4.2-5.6-5.6,7-14.7,7-14.7,2.8-50.387,3.5-52.487,0-11.9,0-16.8-.7-24.494,1.4-29.392,4.2-65.083,15.4-72.082S722,405.013,722,405.013Z" transform="translate(-303.5 -183.852)" fill="#2f2e41"/>
    <path id="pt" d="M618.292,700.337s14,28.693,4.2,32.192-22.394.7-25.194,4.9-33.591,9.1-34.291-1.4S596.6,705.936,596.6,705.936l4.467-7.193Z" transform="translate(-288.669 -272.029)" fill="#2f2e41"/>
    <path id="pt" d="M780.292,730.337s14,28.693,4.2,32.192-22.394.7-25.194,4.9-33.591,9.1-34.291-1.4S758.6,735.936,758.6,735.936l4.467-7.193Z" transform="translate(-337.298 -281.034)" fill="#2f2e41"/>
    <circle id="pt" data-name="Ellipse 71" cx="23.094" cy="23.094" r="23.094" transform="translate(355.167 43.057)" fill="#a0616a"/>
    <path id="pt" data-name="Path 436" d="M550.4,112.025l-2.8,20.295-20.995,16.1-5.6-7.7V114.124Z" transform="translate(-156.396 -33.627)" fill="#a0616a"/>
    <path id="pt" data-name="Path 437" d="M675.3,235.62s21.694,2.1,32.892-5.6L730.59,362.287s-79.08,6.3-82.579,2.1V323.1l14-67.183Z" transform="translate(-314.189 -131.329)" fill="#3f3d56"/>
    <path id="pt" data-name="Path 438" d="M722.441,220.985l7.526,6.324s30.792,4.9,28.693,13.3l-8.4,99.375,2.8,33.591s-23.794-6.3-41.989,0-3.74-135.348-3.74-135.348S724.013,223.059,722.441,220.985Z" transform="translate(-330.361 -128.616)" fill="#d0cde1"/>
    <path id="pt" data-name="Path 439" d="M676.1,231.931s-22.394,16.159-25.194,26.657-11.9,121.069-11.9,121.069,4.2-2.1,6.3,1.4S679.6,237.466,676.1,231.931Z" transform="translate(-311.487 -131.902)" fill="#d0cde1"/>
    <path id="pt" data-name="Path 440" d="M677.773,166.669s-2.5-3.75-1.539-7.789a23.607,23.607,0,0,0,.673-7.019,69.476,69.476,0,0,1,4.039-10.193c2.019-3.654,1.058-5.192,7.4-6.346s3.75-9.423,20.481-.481a4.907,4.907,0,0,0,5.1,1.923c3.462-.673,4.712,4.135,4.712,4.135s2.308-1.346,3.173.577,7.036-1.154,7.036,11.827-7.022,24.577-7.022,24.577.515-21.836-10.928-24.048-23.751-8.654-26.732-.385a63.039,63.039,0,0,1-6.394,13.222Z" transform="translate(-322.595 -101.525)" fill="#2f2e41"/>
    <ellipse id="pt" cx="2.257" cy="3.009" rx="2.257" ry="3.009" transform="translate(397.226 64.318)" fill="#a0616a"/>
    <path id="pt" d="M599.973,493.178c-5.538-3.33-12.215-3.076-14.753-2.821.967,2.36,3.867,8.38,9.4,11.711s12.219,3.077,14.754,2.824C608.412,502.532,605.511,496.51,599.973,493.178Z" transform="translate(-295.34 -209.435)" fill="#d0cde1"/>
    <path id="pt" d="M625.3,588.87h-34.61a7.787,7.787,0,1,0,0,15.575H625.3a7.787,7.787,0,0,0,0-15.575Z" transform="translate(-294.644 -239.048)" fill="#d0cde1"/>
    <path id="pt" d="M776.83,471.412H582.781a17.189,17.189,0,0,0-17.19,17.189v94.545a17.189,17.189,0,0,0,17.189,17.189H776.83a17.189,17.189,0,0,0,17.189-17.189V488.6a17.189,17.189,0,0,0-17.189-17.189ZM577.979,483.138c.383-.069,9.47-1.616,16.994,2.912s10.414,13.28,10.534,13.65l.3.944-.976.173a25.916,25.916,0,0,1-4.211.309A25.073,25.073,0,0,1,587.84,497.9c-7.524-4.526-10.414-13.279-10.533-13.649l-.3-.944ZM620.1,570.916h-34.61a9.518,9.518,0,0,1,0-19.036H620.1a9.518,9.518,0,1,1,0,19.036Zm157.477-1.731A10.414,10.414,0,0,1,767.2,579.569H741.239a10.414,10.414,0,0,1-10.383-10.383V553.612a10.414,10.414,0,0,1,10.383-10.383H767.2a10.414,10.414,0,0,1,10.383,10.383Z" transform="translate(-289.448 -203.789)" fill="#d0cde1"/>
    <path id="pt" d="M822.2,606.8H810.954a3.028,3.028,0,1,0,0,6.057H822.2a3.028,3.028,0,0,0,0-6.057Zm0,4.326H810.954a1.3,1.3,0,0,1,0-2.6H822.2a1.3,1.3,0,0,1,0,2.6Z" transform="translate(-362.191 -244.429)" fill="#d0cde1"/>
    <path id="pt" d="M851.875,606.8H840.627a3.028,3.028,0,0,0,0,6.057h11.248a3.028,3.028,0,1,0,0-6.057Zm0,4.326H840.627a1.3,1.3,0,1,1,0-2.6h11.248a1.3,1.3,0,1,1,0,2.6Z" transform="translate(-371.099 -244.429)" fill="#d0cde1"/>
    <path id="pt" d="M822.2,595.67H810.954a3.028,3.028,0,1,0,0,6.057H822.2a3.028,3.028,0,0,0,0-6.057Zm0,4.326H810.954a1.3,1.3,0,0,1,0-2.6H822.2a1.3,1.3,0,0,1,0,2.6Z" transform="translate(-362.191 -241.089)" fill="#d0cde1"/>
    <path id="pt" d="M851.875,595.67H840.627a3.028,3.028,0,0,0,0,6.057h11.248a3.028,3.028,0,1,0,0-6.057Zm0,4.326H840.627a1.3,1.3,0,1,1,0-2.6h11.248a1.3,1.3,0,1,1,0,2.6Z" transform="translate(-371.099 -241.089)" fill="#d0cde1"/>
    <path id="pt" d="M822.2,584.542H810.954a3.028,3.028,0,1,0,0,6.057H822.2a3.028,3.028,0,0,0,0-6.057Zm0,4.326H810.954a1.3,1.3,0,0,1,0-2.6H822.2a1.3,1.3,0,0,1,0,2.6Z" transform="translate(-362.191 -237.748)" fill="#d0cde1"/>
    <path id="pt" d="M851.875,584.542H840.627a3.028,3.028,0,0,0,0,6.057h11.248a3.028,3.028,0,1,0,0-6.057Zm0,4.326H840.627a1.3,1.3,0,1,1,0-2.6h11.248a1.3,1.3,0,1,1,0,2.6Z" transform="translate(-371.099 -237.748)" fill="#d0cde1"/>
    <path id="pt" d="M767.37,438.92l-5.017,16.37s-1.282,30.518-18.078,26.319,4.9-39.89,4.9-39.89l4.9-7.7Z" transform="translate(-341.171 -192.565)" fill="#a0616a"/>
    <path id="pt" d="M631.37,438.92l-5.016,16.37s-1.282,30.518-18.078,26.319,4.9-39.89,4.9-39.89l4.9-7.7Z" transform="translate(-300.347 -192.565)" fill="#a0616a"/>
    <path id="pt" d="M768.707,241.958s11.2-2.8,14.7,16.1,7.7,72.781,7.7,72.781l-16.8,56.686s-16.8-9.1-20.295-7.7l13.217-49.212L756.11,280.448S765.908,241.958,768.707,241.958Z" transform="translate(-346.008 -134.868)" fill="#d0cde1"/>
    <path id="pt" d="M580.747,209.393l14.7,48.988-14.7,49.687,8.4-49.687Z" transform="translate(-174.328 -62.855)" opacity="0.15"/>
    <path id="pt" d="M645.2,297.021,620.011,396.4s13.289,4.386,18.188,7.885Z" transform="translate(-305.784 -151.441)" fill="#d0cde1"/>
    <circle id="pt" cx="69.982" cy="69.982" r="69.982" transform="translate(5.152 255.354)" fill="#3f3d56"/>
    <circle id="pt" cx="60.185" cy="60.185" r="60.185" transform="translate(14.95 265.151)" opacity="0.1"/>
    <path id="pt" d="M269.232,574.086v-8.76c-4.428-.086-9.009-1.648-11.681-3.816l1.832-5.811a18.672,18.672,0,0,0,10.994,3.729c5.421,0,9.085-3.556,9.085-8.5,0-4.77-2.978-7.719-8.627-10.321-7.787-3.469-12.6-7.459-12.6-15a13.636,13.636,0,0,1,11.528-13.964v-8.76H274.5v8.412a18.575,18.575,0,0,1,9.925,3.035l-1.909,5.724A16.871,16.871,0,0,0,272.9,517.1c-5.878,0-8.093,3.989-8.093,7.459,0,4.51,2.825,6.765,9.467,9.887,7.863,3.643,11.834,8.152,11.834,15.871,0,6.852-4.2,13.27-12.063,14.744v9.021Z" transform="translate(-196.981 -213.236)" fill="#0e3fa6"/>
    <path id="pt" d="M320.062,750.085a505.289,505.289,0,0,1-149.062,0v-16.8a561.481,561.481,0,0,0,149.062,0Z" transform="translate(-171 -282.399)" fill="#3f3d56"/>
    <path id="pt" d="M320.062,713.085a505.289,505.289,0,0,1-149.062,0v-16.8a561.488,561.488,0,0,0,149.062,0Z" transform="translate(-171 -271.292)" fill="#3f3d56"/>
    <path id="pt" d="M320.062,676.085a505.289,505.289,0,0,1-149.062,0v-16.8a561.486,561.486,0,0,0,149.062,0Z" transform="translate(-171 -260.186)" fill="#3f3d56"/>
  </g>
</svg>
