<svg xmlns="http://www.w3.org/2000/svg" width="670" height="396.426" viewBox="0 0 670 396.426">
  <g id="undraw_Detailed_information_re_qmuc" transform="translate(0 0)">
    <path id="Path_103" data-name="Path 103" d="M345.029,399.368l-.715-.161a162.775,162.775,0,0,1,317.435-.434l-.715.163C644.155,324.824,579.2,273.062,503.08,273.062,427.956,273.065,361.486,326.183,345.029,399.368Z" transform="translate(-167.934 -184.325)" fill="#e6e6e6"/>
    <path id="Path_104" data-name="Path 104" d="M730,511.4H60V130.493H730ZM61.241,510.16H728.759V131.734H61.241Z" transform="translate(-60 -130.493)" fill="#3f3d56"/>
    <circle id="Ellipse_12" data-name="Ellipse 12" cx="5.5" cy="5.5" r="5.5" transform="translate(40 33.411)" fill="#0e3fa6"/>
    <circle id="Ellipse_13" data-name="Ellipse 13" cx="5.5" cy="5.5" r="5.5" transform="translate(57 33.411)" fill="#f2f2f2"/>
    <circle id="Ellipse_14" data-name="Ellipse 14" cx="5.5" cy="5.5" r="5.5" transform="translate(74 33.411)" fill="#f2f2f2"/>
    <path id="Path_107" data-name="Path 107" d="M1070,642.708v41.431h-44.12A53.815,53.815,0,0,1,1070,642.708Z" transform="translate(-426.677 -324.945)" fill="#e6e6e6"/>
    <path id="Path_108" data-name="Path 108" d="M880.405,313.3l-.4-.478L731.5,435.985l-.478.4,102.9,124.074h1.613L732.769,436.543,879.847,314.572l78.216,94.315v-1.948Z" transform="translate(-314.739 -199.711)" fill="#e6e6e6"/>
    <circle id="Ellipse_15" data-name="Ellipse 15" cx="38.272" cy="38.272" r="38.272" transform="translate(398.8 99.956)" fill="#a0616a"/>
    <path id="Path_111" data-name="Path 111" d="M783.539,459.823l-21.3,61.748v.005l-10.264,29.772s-1.048,47.337-2.1,47.337c-.218,0-.529.682-.879,1.757H647.012l8.185-86.97-.5-4.052-6.4-51.944a26.032,26.032,0,0,1,17.2-27.743l10.7-3.761a84.7,84.7,0,0,1,43.742-3.335h0a84.7,84.7,0,0,1,35.739,15.915Z" transform="translate(-282.847 -240.846)" fill="#0e3fa6"/>
    <path id="Path_113" data-name="Path 113" d="M773.2,290.655S761.052,264.328,737.76,270.4s-36.454,15.189-37.466,24.3.506,22.784.506,22.784,2.532-18.735,18.735-14.683,41.516,1.012,41.516,1.012l4.05,36.454s4.557-6.582,9.619-2.532S789.405,298.756,773.2,290.655Z" transform="translate(-302.943 -183.261)" fill="#2f2e41"/>
    <path id="Path_114" data-name="Path 114" d="M872.323,579.2s0,24.037-8.834,44.887H833.132l.267-.7,8.415-36.822-3.154-12.621-7.623-28.719v-.005a83.953,83.953,0,0,1,.674-45.461l.345-1.161a21.156,21.156,0,0,1,20.279-15.126h0s13.675,11.574,12.621,33.663Z" transform="translate(-351.643 -264.494)" fill="#0e3fa6"/>
    <path id="Path_121" data-name="Path 121" d="M1027.719,227.191a20.705,20.705,0,1,1,20.705-20.705h0A20.705,20.705,0,0,1,1027.719,227.191Zm0-40.448a19.743,19.743,0,1,0,19.743,19.743h0A19.743,19.743,0,0,0,1027.719,186.743Z" transform="translate(-419.515 -151.482)" fill="#ccc"/>
    <path id="Path_123" data-name="Path 123" d="M719.648,503.576H103V162.993H719.648Zm-615.506-1.109H718.506V164.1H104.142Z" transform="translate(-76.324 -142.831)" fill="#ccc"/>
    <path id="Path_122" data-name="Path 122" d="M1043.605,206.186l-.452-.452-8.408,8.409-8.409-8.409-.452.452,8.409,8.408L1027,221.884l.452.452,7.289-7.289,7.289,7.289.452-.452-7.289-7.289Z" transform="translate(-426.678 -159.057)" fill="#3f3d56"/>
    <path id="Path_146" data-name="Path 146" d="M342.642,477.939H132.415A7.425,7.425,0,0,0,125,485.354v81.125a7.425,7.425,0,0,0,7.415,7.418H342.642a7.425,7.425,0,0,0,7.415-7.415V485.354a7.425,7.425,0,0,0-7.415-7.415Zm6.542,88.54a6.551,6.551,0,0,1-6.542,6.542H132.415a6.55,6.55,0,0,1-6.542-6.542V485.354a6.551,6.551,0,0,1,6.542-6.542H342.642a6.55,6.55,0,0,1,6.542,6.542Z" transform="translate(-84.676 -262.394)" fill="#3f3d56"/>
    <path id="Path_141" data-name="Path 141" d="M384.963,515.938H274.834c-3.2,0-5.825,2.109-5.95,4.768a1.332,1.332,0,0,0-.009.195c0,2.74,2.668,4.959,5.959,4.963H384.963c3.291,0,5.959-2.222,5.959-4.963S388.255,515.938,384.963,515.938Z" transform="translate(-139.295 -276.819)" fill="#0e3fa6"/>
    <path id="Path_141-2" data-name="Path 141-2" d="M384.963,547.939H274.834c-3.2,0-5.825,2.109-5.95,4.768a1.333,1.333,0,0,0-.009.195c0,2.74,2.668,4.959,5.959,4.963H384.963c3.291,0,5.959-2.222,5.959-4.963S388.254,547.939,384.963,547.939Z" transform="translate(-139.295 -288.968)" fill="#0e3fa6"/>
    <path id="Path_141-3" data-name="Path 141-3" d="M384.963,579.939H274.834c-3.2,0-5.825,2.109-5.95,4.768a1.332,1.332,0,0,0-.009.195c0,2.74,2.668,4.959,5.959,4.963H384.963c3.291,0,5.959-2.222,5.959-4.963S388.255,579.939,384.963,579.939Z" transform="translate(-139.295 -301.116)" fill="#0e3fa6"/>
    <path id="Path_140" data-name="Path 140" d="M178.91,565.781a26.275,26.275,0,1,1,26.275-26.275A26.275,26.275,0,0,1,178.91,565.781Zm0-51.643a25.368,25.368,0,1,0,25.368,25.368h0A25.368,25.368,0,0,0,178.91,514.138Z" transform="translate(-95.167 -275.792)" fill="#3f3d56"/>
    <path id="Path_118" data-name="Path 118" d="M342.333,679.826H320V657.493h22.333Zm-21.093-1.241h19.852V658.734H321.241Z" transform="translate(-158.704 -330.558)" fill="#ff6584"/>
    <path id="Path_119" data-name="Path 119" d="M272.3,666.423l-7.979-7.313.839-.914,6.91,6.335L287.8,640.938l1.032.689Z" transform="translate(-137.567 -324.273)" fill="#3f3d56"/>
    <path id="Path_120" data-name="Path 120" d="M277.093,663.076v15.509H257.241V658.734H272.75v-1.241H256v22.333h22.333v-16.75Z" transform="translate(-134.407 -330.558)" fill="#e5e5e5"/>
    <circle id="Ellipse_18" data-name="Ellipse 18" cx="14.5" cy="14.5" r="14.5" transform="translate(60 257.411)" fill="#0e3fa6"/>
    <path id="Path_626" data-name="Path 626" d="M486.889,721.659a11.616,11.616,0,0,1,14.23-10.712l22.01-34.921,8.852,19.539-22.259,30.166a11.679,11.679,0,0,1-22.834-4.072Z" transform="translate(-222.052 -337.594)" fill="#a0616a"/>
    <path id="Path_115" data-name="Path 115" d="M612.27,441.353l-1.214.214a39.053,39.053,0,0,0-30,24.736q-.215.585-.412,1.177l-8.416,37.87L514.372,615.809l17.886,10.519s49.443-57.859,55.755-77.847L613.428,499.6a15.839,15.839,0,0,0,1.775-7.917L613.3,442.183a.876.876,0,0,0-1.028-.83Z" transform="translate(-232.493 -248.5)" fill="#0e3fa6"/>
  </g>
</svg>
