<svg xmlns="http://www.w3.org/2000/svg" xmlns:xlink="http://www.w3.org/1999/xlink" width="1058.052" height="578" viewBox="0 0 1058.052 578">
  <defs>
    <clipPath id="clip-path">
      <rect x="-268" y="-16" width="1200" height="1200" fill="none"/>
    </clipPath>
  </defs>
  <g id="Scroll_Group_3" data-name="Scroll Group 3" transform="translate(268 16)" clip-path="url(#clip-path)" style="isolation: isolate">
    <g id="undraw_Loving_it_re_jfh4" transform="scale(1.1,1.1)">
      <path id="Path_689" data-name="Path 689" d="M371.548,676.171c5.052,17.526,19.8,29.8,35.191,40.217q3.223,2.183,6.448,4.266c.015.006.03.02.044.026.1.066.207.133.3.2l1.328.855-.242.109s-.237.126.022.02c.077-.032.158-.061.235-.094,8.939-3.605,18.037-7.476,24.888-14.23,7.107-7.014,11.259-18.014,7.411-27.228a17.594,17.594,0,0,0-1.9-3.419c-.312-.447-.648-.874-1-1.294a18.856,18.856,0,0,0-32.386,5.73c-1.13-10.526,7.549-19.343,15.9-25.848s17.851-13.583,19.467-24.051c.9-5.824-1.123-11.468-4.812-16-.114-.138-.228-.275-.346-.409a27.519,27.519,0,0,0-17.687-9.489c-12.813-1.332-25.259,5.451-34.568,14.359C374.862,634.227,365.8,656.244,371.548,676.171Z" transform="translate(-341.474 -177)" fill="#f2f2f2"/>
      <path id="Path_690" data-name="Path 690" d="M395.632,653.247a46.78,46.78,0,0,0-5.6,12.361,40.619,40.619,0,0,0-1.4,12,52.044,52.044,0,0,0,6.816,23.684,74.9,74.9,0,0,0,11.3,15.1q3.223,2.183,6.448,4.266c.015.006.03.02.044.026.1.066.207.133.3.2l1.328.855s-.479.235-.219.129c.077-.032.158-.061.235-.094a41.039,41.039,0,0,1,30.395-44.877c-.312-.447-.648-.874-1-1.294a43.3,43.3,0,0,0-7.147,2.7A42.424,42.424,0,0,0,417.946,696.8a43.374,43.374,0,0,0-4.723,23.8c-.367-.333-.735-.673-1.092-1.01-6.793-6.333-12.826-13.6-16.91-21.992a48.416,48.416,0,0,1-5.07-22.907c.333-8.653,3.781-16.669,8.773-23.646a101.344,101.344,0,0,1,19.211-19.8,115.158,115.158,0,0,1,23.892-14.751.828.828,0,0,0,.417-1.063.7.7,0,0,0-.346-.409.613.613,0,0,0-.532.023c-1.054.485-2.1.977-3.139,1.49a116.462,116.462,0,0,0-24.062,15.873C407.283,638.447,400.615,645.346,395.632,653.247Z" transform="translate(-341.474 -177)" fill="#fff"/>
      <ellipse id="Ellipse_107" data-name="Ellipse 107" cx="29.807" cy="30.775" rx="29.807" ry="30.775" transform="translate(146.946 192.287) rotate(-28.663)" fill="#2f2e41"/>
      <circle id="Ellipse_108" data-name="Ellipse 108" cx="24.561" cy="24.561" r="24.561" transform="translate(163.304 188.34)" fill="#ffb8b8"/>
      <path id="Path_691" data-name="Path 691" d="M516.17,427.47l-3.158,8.934,4.646,26.889L536.8,479.2l15.2-23.51-7.321-22.243-5.49-6.194h0a4.059,4.059,0,0,0-3.961-4.45l-11.991-.234a7.352,7.352,0,0,0-7.075,4.9Z" transform="translate(-341.474 -177)" fill="#ccc"/>
      <path id="Path_692" data-name="Path 692" d="M225.576,533.7l12.26,0,1.693-47.288-13.957,0Z" fill="#ffb8b8"/>
      <path id="Path_693" data-name="Path 693" d="M564.424,707.192h38.531v14.887H579.311a14.887,14.887,0,0,1-14.887-14.887h0Z" transform="translate(825.968 1252.219) rotate(179.995)" fill="#2f2e41"/>
      <path id="Path_694" data-name="Path 694" d="M139.693,533.7l12.26,0,5.83-47.288-18.094,0Z" fill="#ffb8b8"/>
      <path id="Path_695" data-name="Path 695" d="M478.541,707.192h38.531v14.887H493.428a14.887,14.887,0,0,1-14.887-14.887h0Z" transform="translate(654.202 1252.227) rotate(179.995)" fill="#2f2e41"/>
      <path id="Path_696" data-name="Path 696" d="M588.963,378.607a10.056,10.056,0,0,1,2.352,15.239l10.14,20.621-11.028,9.218-13.911-29.322a10.11,10.11,0,0,1,12.447-15.756Z" transform="translate(-341.474 -177)" fill="#ffb8b8"/>
      <path id="Path_697" data-name="Path 697" d="M515.867,540.08A147.815,147.815,0,0,1,498,538.762a7.143,7.143,0,0,1-6-8.952l13.271-49.14-10.688-29.985a13.478,13.478,0,0,1,7.441-16.926l14.681-6.207,4.412,27.313,10.512,13.254a3.418,3.418,0,0,0,5.663-.459l7.983-14.309-6.521-26.292,9.722,1.15a16.877,16.877,0,0,1,13.912,11.235,45.062,45.062,0,0,1,.747,26.923L559.1,480.68l7.074,45.722a9.314,9.314,0,0,1-8.218,10.691,93.622,93.622,0,0,1-13.619.57c-4.127-.176-7.025-2.692-8.382-7.277a1.276,1.276,0,0,0-2.457-.013q-.563,2-1.239,4.448C531.17,538.787,524.325,540.08,515.867,540.08Z" transform="translate(-341.474 -177)" fill="#2f2e41"/>
      <path id="Path_698" data-name="Path 698" d="M558.523,451.379a9.215,9.215,0,0,1-3.552-.7,8.736,8.736,0,0,1-5.219-6.338,10.569,10.569,0,0,1,5.448-11.347l28.648-15.553-1.567-6.2a4.978,4.978,0,0,1,1.925-5.133l7.387-5.487a4.736,4.736,0,0,1,4-.845,4.184,4.184,0,0,1,2.78,2.3l3.838,8.286c3.036,6.555.44,14.629-6.039,18.779l-32.13,20.582A10.257,10.257,0,0,1,558.523,451.379Z" transform="translate(-341.474 -177)" fill="#2f2e41"/>
      <path id="Path_699" data-name="Path 699" d="M498.17,688.714q-.15,0-.3-.01l-15.609-.627a4.5,4.5,0,0,1-4.2-4.957L493.907,530.71l41.576-15.119,24.484,13.855,26.786,147.68a4.5,4.5,0,0,1-3.352,5.195l-.065.016-15.979-.393a4.514,4.514,0,0,1-5.295-3.027L528.033,559.5a1.5,1.5,0,0,0-2.888.134L502.554,685.19A4.485,4.485,0,0,1,498.17,688.714Z" transform="translate(-341.474 -177)" fill="#2f2e41"/>
      <path id="Path_700" data-name="Path 700" d="M507.888,374.4c-3.907,5.115-.934,13.822,5.286,15.479s13.13-4.418,12.285-10.8c-1.342,6.695,4.387,13.7,11.189,14.3s13.416-4.734,14.9-11.4-1.833-13.945-7.487-17.773-13.225-4.326-19.622-1.939A37.85,37.85,0,0,0,507.888,374.4Z" transform="translate(-341.474 -177)" fill="#2f2e41"/>
      <path id="Path_701" data-name="Path 701" d="M537.495,352.562c-3.638-7.635-7.376-15.416-13.256-21.5s-14.387-10.266-22.722-8.832S486,332.08,487.85,340.334c.938,4.192-2.652,8.346-6.79,9.5s-8.548.075-12.638-1.237-8.235-2.879-12.527-2.695c-8.606.37-15.8,8.517-16.1,17.125s5.554,16.8,13.411,20.335,17.255,2.74,25-1.021,13.946-10.245,18.478-17.571c6.7-10.825,23.521-13.5,33.239-5.275a5.262,5.262,0,0,0,7.117-.571C538.76,356.921,538.51,353.538,537.495,352.562Z" transform="translate(-341.474 -177)" fill="#2f2e41"/>
      <path id="Path_702" data-name="Path 702" d="M721.026,309.654l-8.194-7.391c-29.1-26.715-48.306-44.053-48.306-65.652,0-17.622,13.56-31.264,31.075-31.264a33.424,33.424,0,0,1,25.425,11.938,33.423,33.423,0,0,1,25.425-11.937c17.516,0,31.075,13.642,31.075,31.264,0,21.6-19.21,38.938-48.306,65.652Z" transform="translate(-341.474 -177)" fill="#0e3fa6"/>
      <path id="Path_703" data-name="Path 703" d="M586.137,360.485a3.892,3.892,0,0,1-2.611-3.705V186a9.01,9.01,0,0,1,9-9h257a9.01,9.01,0,0,1,9,9V330a9.01,9.01,0,0,1-9,9H607.09L590.5,359.272a3.892,3.892,0,0,1-3.023,1.449,3.985,3.985,0,0,1-1.344-.236ZM592.526,179a7.008,7.008,0,0,0-7,7V356.78a1.934,1.934,0,0,0,3.431,1.225L606.143,337H849.526a7.008,7.008,0,0,0,7-7V186a7.008,7.008,0,0,0-7-7Z" transform="translate(-341.474 -177)" fill="#3f3d56"/>
      <path id="Path_704" data-name="Path 704" d="M510.353,516.354l-1.737-4.037c-6.09-14.5-10.16-23.971-6.57-31.788a12.237,12.237,0,0,1,16.119-6.3q.163.071.323.147a13.311,13.311,0,0,1,7.217,8.546,13.31,13.31,0,0,1,11.185-.094,12.236,12.236,0,0,1,6.2,16.157q-.072.162-.149.322c-3.59,7.817-13.424,10.9-28.393,15.73Z" transform="translate(-341.474 -177)" fill="#0e3fa6"/>
      <path id="Path_705" data-name="Path 705" d="M517.045,496.524a10.056,10.056,0,0,0-14.357-5.624l-17.974-13.5-4.339,12.351,18.576,15.479a10.11,10.11,0,0,0,18.095-8.7Z" transform="translate(-341.474 -177)" fill="#ffb8b8"/>
      <path id="Path_706" data-name="Path 706" d="M491.274,500.783a4.179,4.179,0,0,1-2.235-.648l-7.72-4.879c-6.107-3.859-8.307-12.05-5.116-19.052l15.823-34.721a9.84,9.84,0,0,1,7.1-5.717,8.733,8.733,0,0,1,7.822,2.493,10.569,10.569,0,0,1,1.58,12.488l-15.626,28.607,4.678,4.354a4.98,4.98,0,0,1,1.168,5.357l-3.228,8.617a4.743,4.743,0,0,1-2.9,2.88A4.232,4.232,0,0,1,491.274,500.783Z" transform="translate(-341.474 -177)" fill="#2f2e41"/>
      <path id="Path_707" data-name="Path 707" d="M656.474,723h-314a1,1,0,0,1,0-2h314a1,1,0,0,1,0,2Z" transform="translate(-341.474 -177)" fill="#ccc"/>
    </g>
  </g>
</svg>
