<svg xmlns="http://www.w3.org/2000/svg" width="770.091" height="461.448" viewBox="0 0 770.091 461.448">
  <g id="undraw_Work_chat_re_qes4" transform="translate(0 0)">
    <path id="Path_459" data-name="Path 459" d="M483.548,659.514a25.576,25.576,0,0,1-24.7-4.35c-8.65-7.26-11.362-19.222-13.569-30.3l-6.527-32.759,13.665,9.409c9.827,6.767,19.876,13.75,26.68,23.551s9.774,23.18,4.307,33.786" transform="translate(-184.556 -246.067)" fill="#e6e6e6"/>
    <path id="Path_460" data-name="Path 460" d="M487.968,708.844c1.383-10.074,2.805-20.278,1.835-30.461-.862-9.043-3.621-17.876-9.237-25.118a41.785,41.785,0,0,0-10.72-9.714c-1.072-.677-2.059,1.022-.991,1.7a39.724,39.724,0,0,1,15.713,18.958c3.421,8.7,3.97,18.186,3.381,27.428-.356,5.59-1.112,11.142-1.873,16.688a1.018,1.018,0,0,0,.686,1.208A.988.988,0,0,0,487.968,708.844Z" transform="translate(-190.144 -255.736)" fill="#f2f2f2"/>
    <path id="Path_461" data-name="Path 461" d="M463.019,697.346a18.827,18.827,0,0,1-16.4,8.466c-8.3-.394-15.227-6.19-21.459-11.692l-18.433-16.275,12.2-.584c8.773-.42,17.772-.812,26.128,1.894s16.062,9.217,17.59,17.866" transform="translate(-178.518 -262.064)" fill="#e6e6e6"/>
    <path id="Path_462" data-name="Path 462" d="M487.847,724.125c-6.657-11.779-14.379-24.871-28.176-29.055a31.446,31.446,0,0,0-11.851-1.224c-1.258.109-.944,2.048.312,1.94a29.21,29.21,0,0,1,18.913,5c5.333,3.63,9.485,8.676,13,14.028,2.153,3.278,4.081,6.695,6.009,10.107C486.669,726.015,488.47,725.228,487.847,724.125Z" transform="translate(-186.114 -265.224)" fill="#f2f2f2"/>
    <path id="Path_463" data-name="Path 463" d="M665.881,419.573,520.746,539.862a8.948,8.948,0,0,1-12.585-1.178L446.98,464.865a8.948,8.948,0,0,1,1.178-12.585L593.292,331.992a8.948,8.948,0,0,1,12.585,1.177l61.181,73.819a8.948,8.948,0,0,1-1.178,12.584Z" transform="translate(-185.72 -196.642)" fill="#ccc"/>
    <path id="Path_464" data-name="Path 464" d="M661.78,417.667l-141.8,117.523a4.609,4.609,0,0,1-6.483-.607L455.082,464.1a4.609,4.609,0,0,1,.607-6.483l141.8-117.523a4.609,4.609,0,0,1,6.483.607l58.416,70.482a4.609,4.609,0,0,1-.607,6.483Z" transform="translate(-187.435 -198.357)" fill="#fff"/>
    <path id="Path_465" data-name="Path 465" d="M711.325,461.8l-29.165-2.73,20.874-16.428,11.245,13.567a3.37,3.37,0,0,1,.391,3.782,3.471,3.471,0,0,1-.853,1.057A3.375,3.375,0,0,1,711.325,461.8Z" transform="translate(-230.444 -217.889)" fill="#ccc"/>
    <path id="Path_466" data-name="Path 466" d="M627.614,400.093,555.88,459.546a4.333,4.333,0,0,1-5.531-6.673l71.733-59.453a4.333,4.333,0,0,1,5.531,6.673Z" transform="translate(-205.299 -208.421)" fill="#ccc"/>
    <path id="Path_467" data-name="Path 467" d="M589.776,406.473l-48.378,40.1a4.333,4.333,0,0,1-5.531-6.673l48.378-40.1a4.333,4.333,0,1,1,5.531,6.673Z" transform="translate(-202.568 -209.624)" fill="#ccc"/>
    <circle id="Ellipse_75" data-name="Ellipse 75" cx="13.542" cy="13.542" r="13.542" transform="translate(298.703 251.768)" fill="#0e3fa6"/>
    <circle id="Ellipse_76" data-name="Ellipse 76" cx="4.333" cy="4.333" r="4.333" transform="translate(415.631 229.498)" fill="#e6e6e6"/>
    <circle id="Ellipse_77" data-name="Ellipse 77" cx="4.333" cy="4.333" r="4.333" transform="translate(427.309 219.82)" fill="#e6e6e6"/>
    <circle id="Ellipse_78" data-name="Ellipse 78" cx="4.333" cy="4.333" r="4.333" transform="translate(438.986 210.141)" fill="#e6e6e6"/>
    <path id="Path_468" data-name="Path 468" d="M461.2,547.3h9.949l4.733-38.373H461.2Z" transform="translate(-86.947 -95.945)" fill="#ffb8b8"/>
    <path id="Path_469" data-name="Path 469" d="M583.571,717.885h19.593A12.486,12.486,0,0,1,615.65,730.37v.405H583.572Z" transform="translate(-211.857 -269.779)" fill="#2f2e41"/>
    <path id="Path_470" data-name="Path 470" d="M417.2,547.3h9.949l4.733-38.373H417.2Z" transform="translate(-78.652 -95.945)" fill="#ffb8b8"/>
    <path id="Path_471" data-name="Path 471" d="M539.571,717.885h19.593A12.486,12.486,0,0,1,571.65,730.37v.405H539.572Z" transform="translate(-203.562 -269.779)" fill="#2f2e41"/>
    <path id="Path_472" data-name="Path 472" d="M551.755,670.088h0l-8.46,0a3.637,3.637,0,0,1-3.647-3.52l-.266-7.4c-2.139-59.189-4.35-120.394,9.346-147.9l.107-.216,45.345-1.641,9.1,83.51a36.213,36.213,0,0,1-.422,10.682l-12.034,63.416a3.651,3.651,0,0,1-3.73,2.968l-9.5-.308a3.653,3.653,0,0,1-3.491-4.011l7.465-58.653a20.046,20.046,0,0,0-.677-7.534l-9.284-32.454a1.217,1.217,0,0,0-2.376.167l-13.857,99.753a3.667,3.667,0,0,1-3.617,3.149Z" transform="translate(-203.226 -230.475)" fill="#2f2e41"/>
    <circle id="Ellipse_79" data-name="Ellipse 79" cx="19.931" cy="19.931" r="19.931" transform="translate(334.021 155.576)" fill="#ffb8b8"/>
    <path id="Path_473" data-name="Path 473" d="M591.594,497.591H550.353a3.652,3.652,0,0,1-3.614-4.179l2.037-13.954-11.964-32.908a24.218,24.218,0,0,1,19.483-32.27h0a24.125,24.125,0,0,1,25.173,13.645l2.628,5.592,11.09,59.757a3.651,3.651,0,0,1-3.591,4.317Z" transform="translate(-202.767 -212.498)" fill="#0e3fa6"/>
    <path id="Path_474" data-name="Path 474" d="M494.864,539.422A8.717,8.717,0,0,0,500.9,527.5l32.136-72.6-18.384-4.63-25.808,72.824a8.765,8.765,0,0,0,6.015,16.335Z" transform="translate(-193.097 -219.326)" fill="#ffb8b8"/>
    <path id="Path_475" data-name="Path 475" d="M534.383,463.444l-17.88-8.369a3.909,3.909,0,0,1-1.6-5.7l10.866-16.41a10.855,10.855,0,1,1,19.636,9.262l-5.619,18.8a3.909,3.909,0,0,1-5.4,2.42Z" transform="translate(-198.789 -214.891)" fill="#0e3fa6"/>
    <path id="Path_476" data-name="Path 476" d="M647.139,328.468a8.717,8.717,0,0,1-7.148,11.3l-45.9,64.784-13.391-13.419,49.333-59.461a8.765,8.765,0,0,1,17.111-3.2Z" transform="translate(-211.315 -195.205)" fill="#ffb8b8"/>
    <path id="Path_477" data-name="Path 477" d="M602.35,410.906a3.9,3.9,0,0,1-1,3.1l-13.267,14.452a10.855,10.855,0,0,1-18.011-12.123l8.531-17.737a3.909,3.909,0,0,1,5.714-1.542l16.345,11.071a3.9,3.9,0,0,1,1.69,2.782Z" transform="translate(-208.963 -209.167)" fill="#0e3fa6"/>
    <path id="Path_478" data-name="Path 478" d="M577.742,366.207a20.492,20.492,0,0,0-.745-5.336c-3.211-11.866-15.065-18.987-26.961-17.2a25.722,25.722,0,0,0-7.115-1h0a25.66,25.66,0,0,0-25.355,21.721l-9.609,61.861H559.89l8.386-53.984a25.789,25.789,0,0,0,.218-6.065Z" transform="translate(-197.602 -199.042)" fill="#2f2e41"/>
    <path id="Path_479" data-name="Path 479" d="M633.533,733.949H462.311a.811.811,0,0,1,0-1.623H633.533a.811.811,0,0,1,0,1.623Z" transform="translate(-188.844 -272.501)" fill="#ccc"/>
    <path id="Path_480" data-name="Path 480" d="M884.334,243.332a8.16,8.16,0,0,1,8.915,8.78l26.541,11.681-12.66,8.172L883.867,259.62a8.2,8.2,0,0,1,.467-16.287Z" transform="translate(-267.15 -180.307)" fill="#a0616a"/>
    <circle id="Ellipse_80" data-name="Ellipse 80" cx="19.931" cy="19.931" r="19.931" transform="translate(704.313 8.592)" fill="#a0616a"/>
    <path id="Path_481" data-name="Path 481" d="M844.639,376.449h-9.949l-4.733-38.373h14.683Z" transform="translate(-156.467 -63.735)" fill="#a0616a"/>
    <path id="Path_482" data-name="Path 482" d="M969.224,559.926H937.146v-.406a12.485,12.485,0,0,1,12.486-12.486h19.593Z" transform="translate(-278.515 -237.569)" fill="#2f2e41"/>
    <path id="Path_483" data-name="Path 483" d="M895.639,376.449H885.69l-4.733-38.373h14.683Z" transform="translate(-166.082 -63.735)" fill="#a0616a"/>
    <path id="Path_484" data-name="Path 484" d="M1020.228,559.926H988.15v-.406a12.486,12.486,0,0,1,12.486-12.486h19.593Z" transform="translate(-288.13 -237.569)" fill="#2f2e41"/>
    <path id="Path_485" data-name="Path 485" d="M1010.535,506.245a3.656,3.656,0,0,1-.445-.028l-14.563-1.792a3.646,3.646,0,0,1-3.2-3.437l-4.245-95.563a1.217,1.217,0,0,0-2.319-.449l-10.9,36.341-2.245,58.375a3.65,3.65,0,0,1-4.076,3.485l-12.611-1.484a3.64,3.64,0,0,1-3.224-3.7l1.071-54.948,8.544-86.253.382.014,51.952,2-.468,143.794a3.653,3.653,0,0,1-3.652,3.64Z" transform="translate(-281.448 -201.704)" fill="#2f2e41"/>
    <path id="Path_486" data-name="Path 486" d="M1013.616,343.445h-.1L961.2,342.073a3.652,3.652,0,0,1-3.523-4.142l10.054-74a35.813,35.813,0,0,1,15.159-24.987,31,31,0,0,1,25.243-4.5c18.263,4.628,29.219,24.239,24.423,43.716l-15.392,62.507A3.673,3.673,0,0,1,1013.616,343.445Z" transform="translate(-282.379 -178.457)" fill="#3f3d56"/>
    <path id="Path_487" data-name="Path 487" d="M932.3,285.98a17.708,17.708,0,0,1-9.708-2.884l-30.513-20.019a3.651,3.651,0,0,1-.648-5.564l4.6-4.853a3.638,3.638,0,0,1,4-.882l34.083,13.572L965.688,242.8a13.109,13.109,0,1,1,13.346,22.46l-39.022,18.954A17.641,17.641,0,0,1,932.3,285.98Z" transform="translate(-269.708 -179.754)" fill="#3f3d56"/>
    <path id="Path_488" data-name="Path 488" d="M1019.8,213.256c3.4.8,7.5,1.419,9.932-1.091a10.154,10.154,0,0,0,1.149-1.534l3.177-4.851c2.434-3.716,4.91-7.528,5.94-11.849a19.266,19.266,0,0,0-14.531-23.268c-4.744-1.062-9.385-2.889-14.235-2.556s-10.537.224-14.606-2.434c.254,1.185,1.625,6.422,1.625,6.422s-6.12,5.614-7.347,7.014a11.5,11.5,0,0,1,16,8.659c.347,2.131.143,4.494,1.409,6.243,1.2,1.663,3.364,2.246,5.179,3.207a12.629,12.629,0,0,1,5.556,15.454Z" transform="translate(-288.649 -165.674)" fill="#2f2e41"/>
    <path id="Path_489" data-name="Path 489" d="M956.822,354.627H791.614a7.842,7.842,0,0,1-7.833-7.833V262.766a7.842,7.842,0,0,1,7.833-7.833H956.822a7.842,7.842,0,0,1,7.833,7.833v84.028A7.842,7.842,0,0,1,956.822,354.627Z" transform="translate(-249.602 -182.501)" fill="#ccc"/>
    <path id="Path_490" data-name="Path 490" d="M956.246,350.254H794.836a4.04,4.04,0,0,1-4.035-4.035v-80.23a4.04,4.04,0,0,1,4.035-4.035h161.41a4.04,4.04,0,0,1,4.035,4.035v80.23A4.04,4.04,0,0,1,956.246,350.254Z" transform="translate(-250.925 -183.825)" fill="#fff"/>
    <path id="Path_491" data-name="Path 491" d="M978.947,391.513,960.794,373.36l23.273.588v15.444a2.953,2.953,0,0,1-1.852,2.771,3.042,3.042,0,0,1-1.167.236,2.958,2.958,0,0,1-2.1-.887Z" transform="translate(-282.973 -204.828)" fill="#ccc"/>
    <path id="Path_492" data-name="Path 492" d="M950.612,310.162H868.958a3.8,3.8,0,1,1,0-7.6h81.655a3.8,3.8,0,0,1,0,7.6Z" transform="translate(-264.944 -191.481)" fill="#ccc"/>
    <path id="Path_493" data-name="Path 493" d="M924.027,290.271H868.958a3.8,3.8,0,1,1,0-7.6h55.069a3.8,3.8,0,1,1,0,7.6Z" transform="translate(-264.944 -187.731)" fill="#ccc"/>
    <circle id="Ellipse_81" data-name="Ellipse 81" cx="11.868" cy="11.868" r="11.868" transform="translate(558.344 94.944)" fill="#0e3fa6"/>
    <circle id="Ellipse_82" data-name="Ellipse 82" cx="3.798" cy="3.798" r="3.798" transform="translate(656.707 142.018)" fill="#e6e6e6"/>
    <circle id="Ellipse_83" data-name="Ellipse 83" cx="3.798" cy="3.798" r="3.798" transform="translate(670 142.018)" fill="#e6e6e6"/>
    <circle id="Ellipse_84" data-name="Ellipse 84" cx="3.798" cy="3.798" r="3.798" transform="translate(683.292 142.018)" fill="#e6e6e6"/>
    <path id="Path_494" data-name="Path 494" d="M993.858,358.384a8.16,8.16,0,0,1,10.418-6.93l16.865-23.589,5.409,14.065-16.845,20.244a8.2,8.2,0,0,1-15.847-3.79Z" transform="translate(-289.196 -196.251)" fill="#a0616a"/>
    <path id="Path_495" data-name="Path 495" d="M1015.931,341.8a3.653,3.653,0,0,1-3.4-1.692l-3.564-5.655a3.635,3.635,0,0,1,.136-4.1l21.587-29.662-14.031-36.172a13.04,13.04,0,0,1,7.152-16.83h0a13.109,13.109,0,0,1,17.912,9.458l8.7,42.5a17.758,17.758,0,0,1-5.4,16.6l-26.949,24.608a3.64,3.64,0,0,1-2.155.942Z" transform="translate(-291.949 -180.945)" fill="#3f3d56"/>
    <path id="Path_496" data-name="Path 496" d="M1033.533,564.949H862.312a.811.811,0,1,1,0-1.623h171.221a.811.811,0,1,1,0,1.623Z" transform="translate(-264.254 -240.641)" fill="#ccc"/>
    <path id="Path_497" data-name="Path 497" d="M341.917,293.289H176.708a7.842,7.842,0,0,1-7.833-7.833V201.427a7.842,7.842,0,0,1,7.833-7.833H341.917a7.842,7.842,0,0,1,7.833,7.833v84.028A7.842,7.842,0,0,1,341.917,293.289Z" transform="translate(-133.677 -170.937)" fill="#ccc"/>
    <path id="Path_498" data-name="Path 498" d="M341.34,288.916H179.931a4.04,4.04,0,0,1-4.035-4.035V204.65a4.04,4.04,0,0,1,4.035-4.035H341.34a4.04,4.04,0,0,1,4.035,4.035v80.23A4.04,4.04,0,0,1,341.34,288.916Z" transform="translate(-135.001 -172.261)" fill="#fff"/>
    <path id="Path_499" data-name="Path 499" d="M364.041,330.175l-18.153-18.153,23.273.588v15.444a2.953,2.953,0,0,1-1.852,2.771,3.044,3.044,0,0,1-1.167.236A2.958,2.958,0,0,1,364.041,330.175Z" transform="translate(-167.048 -193.264)" fill="#ccc"/>
    <path id="Path_500" data-name="Path 500" d="M335.706,248.823H254.052a3.8,3.8,0,0,1,0-7.6h81.655a3.8,3.8,0,0,1,0,7.6Z" transform="translate(-149.019 -179.917)" fill="#ccc"/>
    <path id="Path_501" data-name="Path 501" d="M309.122,228.932h-55.07a3.8,3.8,0,0,1,0-7.6h55.069a3.8,3.8,0,1,1,0,7.6Z" transform="translate(-149.019 -176.167)" fill="#ccc"/>
    <circle id="Ellipse_85" data-name="Ellipse 85" cx="11.868" cy="11.868" r="11.868" transform="translate(59.363 45.169)" fill="#0e3fa6"/>
    <circle id="Ellipse_86" data-name="Ellipse 86" cx="3.798" cy="3.798" r="3.798" transform="translate(157.726 92.243)" fill="#e6e6e6"/>
    <circle id="Ellipse_87" data-name="Ellipse 87" cx="3.798" cy="3.798" r="3.798" transform="translate(171.018 92.243)" fill="#e6e6e6"/>
    <circle id="Ellipse_88" data-name="Ellipse 88" cx="3.798" cy="3.798" r="3.798" transform="translate(184.311 92.243)" fill="#e6e6e6"/>
    <path id="Path_502" data-name="Path 502" d="M368.258,183.528a8.16,8.16,0,0,0-4.309,11.747l-19,21.9,14.938,1.979,15.757-21.1a8.2,8.2,0,0,0-7.382-14.526Z" transform="translate(-166.87 -168.945)" fill="#ffb8b8"/>
    <path id="Path_503" data-name="Path 503" d="M212.168,193.181A8.16,8.16,0,0,1,205.876,204l-4.729,28.61-11.058-10.237,6.186-25.6a8.2,8.2,0,0,1,15.894-3.589Z" transform="translate(-137.676 -169.829)" fill="#ffb8b8"/>
    <path id="Path_504" data-name="Path 504" d="M128.4,376.449h9.949l4.733-38.373H128.4Z" transform="translate(-24.206 -63.735)" fill="#ffb8b8"/>
    <path id="Path_505" data-name="Path 505" d="M250.772,547.035h19.593a12.486,12.486,0,0,1,12.486,12.486v.405H250.773Z" transform="translate(-149.117 -237.569)" fill="#2f2e41"/>
    <path id="Path_506" data-name="Path 506" d="M65.4,376.449h9.949l4.733-38.373H65.4Z" transform="translate(-12.329 -63.735)" fill="#ffb8b8"/>
    <path id="Path_507" data-name="Path 507" d="M187.772,547.035h19.593a12.485,12.485,0,0,1,12.486,12.486v.405H187.773Z" transform="translate(-137.24 -237.569)" fill="#2f2e41"/>
    <circle id="Ellipse_89" data-name="Ellipse 89" cx="19.931" cy="19.931" r="19.931" transform="translate(82.185 10.862)" fill="#ffb8b8"/>
    <path id="Path_508" data-name="Path 508" d="M236.057,503.532l-1.648-105.01a1.217,1.217,0,0,0-2.4-.263L204.993,500.973a3.7,3.7,0,0,1-3.709,2.807l-14.842-.635a3.652,3.652,0,0,1-3.467-4.106L205.9,367.045l.047-.372,63.849,3.021.416.019-13.692,134.04a3.667,3.667,0,0,1-3.641,3.381H239.708A3.667,3.667,0,0,1,236.057,503.532Z" transform="translate(-136.33 -203.567)" fill="#2f2e41"/>
    <path id="Path_509" data-name="Path 509" d="M288.236,353.668l-92.653-7.6a3.651,3.651,0,0,1-3.135-4.881l14.591-40.34.84-47.879A13.131,13.131,0,0,1,221.4,240.069l6.162-5.585H250.14l1.966,2.577,15.708,2.414a13.2,13.2,0,0,1,11.02,11.225l13.32,98.841a3.652,3.652,0,0,1-3.614,4.139C288.439,353.681,288.337,353.677,288.236,353.668Z" transform="translate(-138.08 -178.646)" fill="#2f2e41"/>
    <path id="Path_510" data-name="Path 510" d="M288.294,237.862,327.8,226.287l17.88-23.54a3.651,3.651,0,0,1,4.343-1.149l11.163,4.771a3.651,3.651,0,0,1,1.72,5.2L349.543,234.5a20.447,20.447,0,0,1-9.457,8.458L293.62,263.494Z" transform="translate(-156.191 -172.391)" fill="#2f2e41"/>
    <path id="Path_511" data-name="Path 511" d="M193.259,258.068a16.931,16.931,0,0,1-6.982-15.073l1.734-22.971a3.661,3.661,0,0,1,3.642-3.377h.032l13.091.116a3.652,3.652,0,0,1,3.551,4.354L205.9,233.51l17.333,7.324-14.6,28.4Z" transform="translate(-136.948 -175.283)" fill="#2f2e41"/>
    <path id="Path_512" data-name="Path 512" d="M257.187,173.139s-20.843-11.223-32.2,2.023,4.328,33.958,4.328,33.958l22.355,2.819s.811-15.2,6.134-14.9S279.653,178.158,257.187,173.139Z" transform="translate(-143.477 -166.244)" fill="#2f2e41"/>
    <path id="Path_513" data-name="Path 513" d="M297.533,563.949H126.311a.811.811,0,1,1,0-1.623H297.533a.811.811,0,1,1,0,1.623Z" transform="translate(-125.5 -240.452)" fill="#ccc"/>
  </g>
</svg>
