<svg xmlns="http://www.w3.org/2000/svg" width="624" height="422.287" viewBox="0 0 624 422.287">
  <g id="undraw_solution_mindset_34bi" transform="translate(0 0.031)">
    <circle id="Ellipse_90" data-name="Ellipse 90" cx="87.037" cy="87.037" r="87.037" transform="translate(0 242.148)" fill="#f2f2f2"/>
    <path id="Path_514" data-name="Path 514" d="M299.334,480.788a183.9,183.9,0,1,1,130.037-53.864A183.9,183.9,0,0,1,299.334,480.788Zm0-366.4c-100.629,0-182.5,81.867-182.5,182.5s81.868,182.5,182.5,182.5,182.5-81.869,182.5-182.5-81.868-182.5-182.5-182.5Z" transform="translate(-107.01 -112.998)" fill="#2f2e41"/>
    <path id="Path_515" data-name="Path 515" d="M345.671,286.947l-.021.011-90.639,50.471L155.759,287.8l-1.71-.855L159.2,183.924l89.63-63.874.989.618,92.762,58.1Z" transform="translate(-57.536 -44.85)" fill="#0e3fa6"/>
    <path id="Path_516" data-name="Path 516" d="M346.67,350.218l-90.639,50.471-99.252-49.626L244.7,289.424Z" transform="translate(-58.556 -108.11)" opacity="0.3"/>
    <path id="Path_517" data-name="Path 517" d="M399.1,287.315,297.112,226.532l6.14-105.5,92.762,58.1Z" transform="translate(-110.97 -45.218)" opacity="0.1"/>
    <path id="Path_518" data-name="Path 518" d="M159.865,234.184l-.5-.713,90.63-63.971,95.738,60.025-.464.74L250.02,170.548Z" transform="translate(-59.52 -63.319)" fill="#f2f2f2"/>
    <path id="Path_519" data-name="Path 519" d="M157.069,291.684l-.49-.722,90.17-61.219.236.134L344.771,285.3l-.431.759L246.791,230.77Z" transform="translate(-58.481 -85.819)" fill="#f2f2f2"/>
    <path id="Path_520" data-name="Path 520" d="M212,317.6l-.46-.742,90.877-56.311V152.594h.873V261.031Z" transform="translate(-79.01 -57.005)" fill="#f2f2f2"/>
    <path id="Path_521" data-name="Path 521" d="M268.933,347.488l-.464-.739,87.5-54.884V184.879h.873V292.348Z" transform="translate(-100.272 -69.063)" fill="#f2f2f2"/>
    <path id="Path_522" data-name="Path 522" d="M346.943,318.985,245.176,262.442l.014-.272,5.357-105.889.871.044-5.343,105.617,101.292,56.28Z" transform="translate(-91.572 -58.382)" fill="#f2f2f2"/>
    <path id="Path_523" data-name="Path 523" d="M296.519,349.695,195.895,296.964l.016-.28,5.932-105.942.871.049L196.8,296.452l100.126,52.47Z" transform="translate(-73.166 -71.253)" fill="#f2f2f2"/>
    <circle id="Ellipse_91" data-name="Ellipse 91" cx="35.096" cy="35.096" r="35.096" transform="translate(270.236 4.902)" fill="#3f3d56"/>
    <rect id="Rectangle_142" data-name="Rectangle 142" width="603.645" height="1.404" transform="translate(20.355 414.819)" fill="#2f2e41"/>
    <path id="Path_524" data-name="Path 524" d="M986.137,472.149l8.022,21.974s-8.371,25.113,0,25.81,9.415-24.066,9.415-24.066l-4.534-26.508Z" transform="translate(-432.22 -246.108)" fill="#ffb9b9"/>
    <path id="Path_525" data-name="Path 525" d="M988.1,359.128l5.929,5.929v28.252s3.488,5.232,2.79,6.627-1.4,1.4-.7,2.441,1.4,1.744.7,2.441a2.616,2.616,0,0,0,0,3.139c.7.7,2.093,1.744,1.046,2.79s-2.441.349-1.046,4.185,3.837,4.883,3.139,6.278-.7,4.883-.7,4.883l-15,2.093-3.139-39.413Z" transform="translate(-430.349 -204.937)" fill="#d0cde1"/>
    <path id="Path_526" data-name="Path 526" d="M898.792,352.464l-17.439.7.7,7.324L897.4,357.7Z" transform="translate(-329.18 -131.655)" fill="#3f3d56"/>
    <path id="Path_527" data-name="Path 527" d="M831.393,187.953,829.3,208.881l21.276,3.139,1.569-12.033,1.57-12.033Z" transform="translate(-309.739 -70.211)" fill="#ffb9b9"/>
    <path id="Path_528" data-name="Path 528" d="M831.393,187.953,829.3,208.881l21.276,3.139,1.569-12.033,1.57-12.033Z" transform="translate(-309.739 -70.211)" opacity="0.1"/>
    <path id="Path_529" data-name="Path 529" d="M860.875,459.894l11.859,25.461s2.093,11.859,5.232,12.208,6.278-12.208,6.278-12.208l-4.185-6.627-4.883-18.835Z" transform="translate(-385.435 -242.573)" fill="#ffb9b9"/>
    <path id="Path_530" data-name="Path 530" d="M889.714,491.44l-9.766,15.347s-9.417,146.141-8.022,145.1,5.929-1.4,7.673-4.186,12.556,0,12.556,0l6.278-6.627v-5.232c0-1.046,12.556-80.919,12.556-80.919v20.23s-3.837,74.292,2.441,73.594,19.183-4.883,19.183-4.883S951.1,505.042,945.52,499.81,937.5,482.72,937.5,482.72Z" transform="translate(-389.51 -251.098)" fill="#2f2e41"/>
    <circle id="Ellipse_92" data-name="Ellipse 92" cx="16.742" cy="16.742" r="16.742" transform="translate(516.597 91.06)" fill="#ffb9b9"/>
    <path id="Path_531" data-name="Path 531" d="M877.879,338.811l-2.442-1.4s-10.812,7.325-14.3,23.718-5.929,20.578-5.929,20.578-3.488.7-1.046,3.139,2.441,2.093.349,3.488-3.488-1.4-2.093,1.4,3.139,2.093,1.744,3.837-3.837,1.744-2.442,3.139-1.4,4.534.349,5.929,2.441,1.744,2.441,4.185a12.35,12.35,0,0,0,.7,4.185h18.137s-3.488-6.627-2.442-8.022,1.4-2.79.7-3.488-2.79.7-.7-1.046,2.79-.7,2.093-2.79-2.093-1.046-.7-2.093,2.441-.7,1.744-1.744-2.093-1.046-.7-1.744,2.441,0,2.093-1.744-.7-1.046,0-1.744,8.022-24.415,8.022-25.113S877.879,338.811,877.879,338.811Z" transform="translate(-381.86 -196.828)" fill="#d0cde1"/>
    <path id="Path_532" data-name="Path 532" d="M773.055,339.659l-21.974,1.4,5.581,5.232,15.347.349Z" transform="translate(-280.524 -126.872)" fill="#3f3d56"/>
    <path id="Path_533" data-name="Path 533" d="M895.473,494.411l-4.535,8.371s13.6,1.744,18.486,3.488,17.439,4.185,17.439,4.185L930,498.247Z" transform="translate(-396.664 -255.465)" fill="#3f3d56"/>
    <path id="Path_534" data-name="Path 534" d="M859.641,386.081l3.837,11.51,15.347-3.139L877.08,383.64Z" transform="translate(-321.071 -143.299)" fill="#3f3d56"/>
    <path id="Path_535" data-name="Path 535" d="M941.1,315.671s-1.046-.7-3.488.7-10.464,2.093-14.3-2.093-6.627-7.674-7.673-6.976-1.744,8.72-1.744,8.72l-3.488,2.79-20.578,7.325,1.744,47.086,3.139,10.812s-2.441,8.371.7,13.254-1.744,6.627-1.744,6.627-1.046,1.4-.349,4.883-.7,16.393-.7,16.393,29.647,13.254,60.689,1.744l-3.488-13.254-1.744-29.647s1.744-4.883,1.4-6.976,10.464-31.391,10.464-31.391-1.744-14.649-10.812-17.788-10.464-6.278-10.464-6.278S942.84,317.066,941.1,315.671Z" transform="translate(-396.248 -185.547)" fill="#d0cde1"/>
    <path id="Path_536" data-name="Path 536" d="M925.654,273.61a7.677,7.677,0,0,1-1.07-5.416,16.419,16.419,0,0,0,.468-4.881,48.328,48.328,0,0,1,2.808-7.088c1.4-2.541.736-3.611,5.149-4.413s2.608-6.553,14.243-.334a3.412,3.412,0,0,0,3.544,1.337c2.407-.468,3.276,2.875,3.276,2.875s1.6-.936,2.207.4,4.893-.8,4.893,8.224-4.883,17.091-4.883,17.091.358-15.185-7.6-16.723-16.516-6.018-18.589-.267A43.84,43.84,0,0,1,925.654,273.61Z" transform="translate(-409.173 -163.663)" fill="#2f2e41"/>
    <ellipse id="Ellipse_93" data-name="Ellipse 93" cx="1.57" cy="2.093" rx="1.57" ry="2.093" transform="translate(545.72 109.371)" fill="#ffb9b9"/>
    <path id="Path_537" data-name="Path 537" d="M952.467,737.951l2.453,7.359s0,7.359,2.453,11.038,4.906,11.652-4.906,12.265-14.1-3.066-14.1-3.066,1.84-4.906,0-6.746,0-5.519,0-5.519l1.84-14.718Z" transform="translate(-414.071 -346.426)" fill="#2f2e41"/>
    <path id="Path_538" data-name="Path 538" d="M880.86,737.951l-2.453,7.359s0,7.359-2.453,11.038-4.906,11.652,4.906,12.265,14.1-3.066,14.1-3.066-1.84-4.906,0-6.746,0-5.519,0-5.519l-1.84-14.718Z" transform="translate(-390.248 -346.426)" fill="#2f2e41"/>
  </g>
</svg>
