<svg xmlns="http://www.w3.org/2000/svg" width="785.028" height="392.496" viewBox="0 0 785.028 392.496">
  <g id="undraw_send_gift_7o4m" transform="translate(0 0)">
    <rect id="Rectangle_143" data-name="Rectangle 143" width="234.689" height="1.57" transform="translate(0.019 379.918)" fill="#3f3d56"/>
    <path id="Path_539" data-name="Path 539" d="M130.78,665.558l-.446-.982c-.1-.216-9.731-21.816-3.48-42.7s26.169-33.636,26.369-33.762l.913-.575.446.981c.1.216,9.731,21.815,3.48,42.7s-26.169,33.636-26.369,33.762Zm-2.123-43.139c-5.286,17.656,1.175,35.876,2.959,40.345,3.946-2.757,19.362-14.444,24.642-32.083s-1.177-35.872-2.959-40.345c-3.948,2.758-19.363,14.445-24.642,32.083Z" transform="translate(-105.304 -283.336)" fill="#3f3d56"/>
    <path id="Path_540" data-name="Path 540" d="M131.211,623.763c5.237,21.056-5.41,41.83-5.41,41.83s-19.139-13.365-24.376-34.422,5.41-41.83,5.41-41.83S125.973,602.706,131.211,623.763Z" transform="translate(-99.976 -283.723)" fill="#0e3fa6"/>
    <path id="Path_541" data-name="Path 541" d="M879.687,520.316h-463.1a4.715,4.715,0,0,1-4.709-4.709V230.683a4.715,4.715,0,0,1,4.709-4.709h463.1a4.715,4.715,0,0,1,4.71,4.709V515.606a4.715,4.715,0,0,1-4.709,4.709Zm-463.1-292.772a3.143,3.143,0,0,0-3.14,3.14V515.606a3.143,3.143,0,0,0,3.14,3.14h463.1a3.143,3.143,0,0,0,3.14-3.14V230.683a3.143,3.143,0,0,0-3.14-3.14Z" transform="translate(-167.063 -205.567)" fill="#3f3d56"/>
    <path id="Path_542" data-name="Path 542" d="M881.573,199.974H413.844a3.944,3.944,0,0,0-3.964,3.925v26.687H885.536V203.9A3.944,3.944,0,0,0,881.573,199.974Z" transform="translate(-166.633 -199.974)" fill="#0e3fa6"/>
    <circle id="Ellipse_94" data-name="Ellipse 94" cx="4.859" cy="4.859" r="4.859" transform="translate(656.891 10.054)" fill="#d0cde1"/>
    <circle id="Ellipse_95" data-name="Ellipse 95" cx="4.859" cy="4.859" r="4.859" transform="translate(672.44 10.054)" fill="#d0cde1"/>
    <circle id="Ellipse_96" data-name="Ellipse 96" cx="4.859" cy="4.859" r="4.859" transform="translate(687.989 10.054)" fill="#d0cde1"/>
    <path id="Path_543" data-name="Path 543" d="M669.08,454.1H450.875V293.974H669.08Zm-216.636-1.57H667.511V295.544H452.445Z" transform="translate(-175.45 -220.193)" fill="#3f3d56"/>
    <rect id="Rectangle_144" data-name="Rectangle 144" width="50.234" height="8.634" transform="translate(544.649 112.242)" fill="#3f3d56"/>
    <rect id="Rectangle_145" data-name="Rectangle 145" width="50.234" height="8.634" transform="translate(586.25 193.873)" fill="#3f3d56"/>
    <rect id="Rectangle_146" data-name="Rectangle 146" width="141.284" height="8.634" transform="translate(544.649 137.359)" fill="#3f3d56"/>
    <rect id="Rectangle_147" data-name="Rectangle 147" width="141.284" height="8.634" transform="translate(544.649 151.488)" fill="#3f3d56"/>
    <rect id="Rectangle_148" data-name="Rectangle 148" width="141.284" height="8.634" transform="translate(544.649 165.616)" fill="#3f3d56"/>
    <path id="Path_544" data-name="Path 544" d="M966.007,555.592c4.11-3.583,10.74-6.967,16.084-8.948-5.344-1.983-11.974-5.366-16.084-8.949l2.9,8.009H953.875v1.882H968.9Z" transform="translate(-283.64 -272.614)" fill="#3f3d56"/>
    <rect id="Rectangle_149" data-name="Rectangle 149" width="607.914" height="1.57" transform="translate(177.115 313.18)" fill="#3f3d56"/>
    <rect id="Rectangle_150" data-name="Rectangle 150" width="93.763" height="87.668" transform="translate(339.215 119.944)" fill="#0e3fa6"/>
    <rect id="Rectangle_151" data-name="Rectangle 151" width="19.69" height="92.826" transform="translate(376.252 117.599)" fill="#3f3d56"/>
    <path id="Path_545" data-name="Path 545" d="M583.159,326.636c6.287,5.4,4.362,17.953,4.362,17.953S575.4,348.4,569.114,343s-4.362-17.953-4.362-17.953S576.871,321.24,583.159,326.636Z" transform="translate(-199.884 -226.596)" fill="#3f3d56"/>
    <path id="Path_546" data-name="Path 546" d="M609.59,341.65c-5.376,6.3-17.939,4.418-17.939,4.418s-3.846-12.107,1.53-18.412,17.939-4.418,17.939-4.418S614.966,335.346,609.59,341.65Z" transform="translate(-205.443 -226.43)" fill="#3f3d56"/>
    <path id="Path_547" data-name="Path 547" d="M100.678,459.855l.785,7.064-7.064-.785V457.5Z" transform="translate(-20.304 -98.403)" fill="#ffb8b8"/>
    <path id="Path_548" data-name="Path 548" d="M196.184,459.855l-.785,7.064,7.064-.785V457.5Z" transform="translate(-42.028 -98.403)" fill="#ffb8b8"/>
    <path id="Path_549" data-name="Path 549" d="M198.267,466.474l-3.14,80.846s-10.2,60.438-7.849,62.008,0,10.2,0,10.2l13.343,1.57s0-6.279,3.14-8.634S235.943,499.44,235.943,499.44l29.827,106.748s-.785,6.279,1.57,6.279,3.14,8.634,3.14,8.634h13.344v-8.634s3.925-.785,1.57-7.064S274.4,466.474,274.4,466.474Z" transform="translate(-118.678 -257.295)" fill="#2f2e41"/>
    <path id="Path_550" data-name="Path 550" d="M188.761,660.111s-3.925-2.355-5.494-.785-14.128,17.268-14.128,17.268-17.268,10.989-1.57,14.128,27.472-11.774,28.257-13.344-.785-14.128-1.57-12.559-3.14.785-3.925,0S188.761,660.111,188.761,660.111Z" transform="translate(-113.096 -298.66)" fill="#2f2e41"/>
    <path id="Path_551" data-name="Path 551" d="M300.381,660.111s3.925-2.355,5.494-.785S320,676.594,320,676.594s17.268,10.989,1.57,14.128-27.472-11.774-28.257-13.344.785-14.128,1.57-12.559,3.14.785,3.925,0S300.381,660.111,300.381,660.111Z" transform="translate(-141.515 -298.66)" fill="#2f2e41"/>
    <circle id="Ellipse_97" data-name="Ellipse 97" cx="16.091" cy="16.091" r="16.091" transform="translate(110.986 60.831)" fill="#ffb8b8"/>
    <path id="Path_552" data-name="Path 552" d="M147.754,109.285,145.4,133.617l18.838,3.925,4.709-29.042Z" transform="translate(-31.274 -23.337)" fill="#ffb8b8"/>
    <path id="Path_553" data-name="Path 553" d="M258.534,333.259s-4.709,10.2-21.978-.785L204.375,437.652s43.17,25.9,70.642,6.279L265.6,337.968Z" transform="translate(-122.431 -228.473)" fill="#575a89"/>
    <path id="Path_554" data-name="Path 554" d="M237.592,317.829l-14.913-2.355-1.57,10.2s-20.408,2.355-22.762,10.2l2.355,58.083s-7.064,12.559-.785,20.408c0,0-10.2,21.193-2.355,25.117,0,0,18.053-8.634,29.042-6.279,0,0,6.279-1.57,6.279-6.279S237.592,317.829,237.592,317.829Z" transform="translate(-120.327 -224.817)" fill="#2f2e41"/>
    <path id="Path_555" data-name="Path 555" d="M271.757,320.474l8.634,2.355.785,10.989s21.193,13.343,21.978,21.193-15.7,45.525-15.7,45.525,6.279,10.989,3.925,18.053c0,0,10.2,20.408,3.925,25.9,0,0-11.774,3.14-13.343-1.57s-15.7-58.868-9.419-84.77C272.542,358.15,266.263,325.183,271.757,320.474Z" transform="translate(-136.439 -225.892)" fill="#2f2e41"/>
    <path id="Path_556" data-name="Path 556" d="M276.528,349.54h-.3v-8.093a4.684,4.684,0,0,0-4.684-4.684H254.4a4.684,4.684,0,0,0-4.684,4.684v44.4a4.684,4.684,0,0,0,4.684,4.684h17.147a4.684,4.684,0,0,0,4.684-4.684V355.3h.3Z" transform="translate(-132.184 -229.396)" fill="#3f3d56"/>
    <path id="Path_557" data-name="Path 557" d="M288.249,389.274s-6.279-20.408-15.7-14.128,6.279,23.547,6.279,23.547Z" transform="translate(-136.447 -237.393)" fill="#ffb8b8"/>
    <path id="Path_558" data-name="Path 558" d="M238.375,372.078s10.989-13.344,16.483-7.064-9.419,20.408-9.419,20.408Z" transform="translate(-129.744 -235.111)" fill="#ffb8b8"/>
    <path id="Path_559" data-name="Path 559" d="M197.643,340.467s-3.925-.785-6.279,6.279-10.989,33.751-10.989,38.461,3.14,23.547,20.408,20.408S238.458,380.5,238.458,380.5L227.47,364.014l-23.547,14.128Z" transform="translate(-117.269 -230.187)" fill="#2f2e41"/>
    <path id="Path_560" data-name="Path 560" d="M106.674,166.148l3.28,16.934,24.332-14.128-22.762,8.634-5.019-12.45Z" transform="translate(-22.908 -35.519)" opacity="0.1"/>
    <path id="Path_561" data-name="Path 561" d="M194.9,185.634l3.14,2.355L199.608,177Z" transform="translate(-41.92 -38.071)" opacity="0.1"/>
    <path id="Path_562" data-name="Path 562" d="M201.875,420.49s23.055-6.272,33.9-20.012C235.772,400.479,224.637,418.92,201.875,420.49Z" transform="translate(-121.893 -243.1)" opacity="0.1"/>
    <path id="Path_563" data-name="Path 563" d="M275.875,407.974s4.855,23.759,17.341,24.438C293.216,432.412,278.23,437.016,275.875,407.974Z" transform="translate(-137.81 -244.713)" opacity="0.1"/>
    <path id="Path_564" data-name="Path 564" d="M301.492,360.474s2.355,1.57,3.925,8.634,11.774,33.751,7.849,40.03-10.2,20.408-23.547,10.989L276.375,395.8l13.344-12.559,5.494,3.925Z" transform="translate(-137.917 -234.496)" fill="#2f2e41"/>
    <path id="Path_565" data-name="Path 565" d="M240.621,295.11s-13.495-21.871.879-23.009a36.646,36.646,0,0,0,13.784-3.756c4.765-2.425,10.762-4.267,13.954-.535a23.714,23.714,0,0,0,4.825,4.469c2.8,1.859,6.047,4.873,4.251,8.107l-2.945,5.3-4.123,10.6c.96-4.573.984-8.412-1.472-10.307,0,0-13.706,5.833-20.613-4.712C241.428,275.469,238.968,293.73,240.621,295.11Z" transform="translate(-128.991 -214.108)" fill="#2f2e41"/>
    <circle id="Ellipse_98" data-name="Ellipse 98" cx="3.925" cy="3.925" r="3.925" transform="translate(127.076 119.306)" fill="#0e3fa6"/>
  </g>
</svg>
