<svg xmlns="http://www.w3.org/2000/svg" xmlns:xlink="http://www.w3.org/1999/xlink" width="836.885" height="572.502" viewBox="0 0 836.885 572.502">
  <defs>
    <clipPath id="clip-path">
      <rect x="103" y="175" width="836.885" height="572.502" fill="none"/>
    </clipPath>
  </defs>
  <g id="Scroll_Group_2" data-name="Scroll Group 2" transform="translate(-103 -175)" clip-path="url(#clip-path)" style="isolation: isolate">
    <g id="undraw_Creative_process_re_4ylm" transform="translate(0)">
      <path id="Path_627" data-name="Path 627" d="M941.416,687.818h-275v-13.5a4.505,4.505,0,0,1,4.5-4.5h266a4.505,4.505,0,0,1,4.5,4.5Z" transform="translate(-240.557 -76.249)" fill="#0e3fa6"/>
      <path id="Path_628" data-name="Path 628" d="M592.788,139.2c2.14,2.23,4.248,4.527,6.266,6.828l-1.729,1.516c-3.021-3.445-6.229-6.861-9.494-10.111l1.623-1.629Q591.135,137.474,592.788,139.2Zm-13.6-12.95-1.508,1.736c-3.482-3.026-7.106-5.962-10.771-8.731l1.386-1.834C572,120.218,575.665,123.188,579.187,126.247Zm28.754,30.624c2.831,3.707,5.564,7.552,8.124,11.43l-1.919,1.266c-2.531-3.833-5.233-7.635-8.033-11.3ZM556.82,109.357l-1.258,1.926c-3.855-2.516-7.848-4.928-11.867-7.171l1.12-2.008c4.066,2.269,8.105,4.709,12,7.253Zm66.564,70.907c2.291,4.051,4.47,8.237,6.477,12.439l-2.074.991c-1.986-4.156-4.141-8.294-6.405-12.3ZM532.339,95.7l-.978,2.081c-4.164-1.959-8.447-3.8-12.729-5.463l.835-2.143C523.8,91.858,528.127,93.716,532.339,95.7ZM635.473,205.579c1.715,4.341,3.3,8.792,4.706,13.229l-2.192.7c-1.392-4.387-2.957-8.788-4.653-13.08ZM506.242,85.544l-.685,2.195c-4.395-1.369-8.891-2.6-13.363-3.668l.532-2.238C497.249,82.91,501.8,84.159,506.242,85.544ZM643.964,232.325c1.1,4.533,2.061,9.156,2.848,13.742l-2.266.388c-.778-4.534-1.725-9.106-2.815-13.588ZM478.986,79.054l-.379,2.268c-4.541-.758-9.165-1.369-13.745-1.815l.222-2.289C469.717,77.67,474.393,78.287,478.986,79.054ZM648.712,259.97c.472,4.63.791,9.339.948,14l-2.3.077c-.155-4.6-.471-9.261-.938-13.84ZM451.087,76.335l-.066,2.3c-4.6-.133-9.269-.11-13.87.07l-.089-2.3C441.715,76.223,446.433,76.2,451.087,76.335ZM649.651,287.994c-.161,4.656-.486,9.364-.963,13.992l-2.287-.236c.472-4.577.792-9.231.952-13.835ZM423.069,77.433l.245,2.286c-4.573.493-9.195,1.151-13.734,1.956l-.4-2.263C413.769,78.6,418.443,77.931,423.069,77.433Zm223.7,238.443c-.792,4.589-1.754,9.206-2.857,13.724l-2.234-.545c1.091-4.467,2.041-9.033,2.826-13.572ZM395.451,82.338l.556,2.23c-4.473,1.115-8.962,2.4-13.345,3.818l-.708-2.187C386.387,84.763,390.927,83.464,395.451,82.338ZM640.13,343.095c-1.41,4.434-2.993,8.875-4.7,13.2l-2.138-.846c1.69-4.275,3.256-8.666,4.65-13.05ZM368.753,90.98l.858,2.133c-4.278,1.72-8.551,3.611-12.7,5.62l-1-2.069C360.105,94.631,364.427,92.718,368.753,90.98ZM629.829,369.133c-2.007,4.2-4.187,8.388-6.477,12.44l-2-1.132c2.265-4.006,4.419-8.143,6.4-12.3ZM343.505,103.214l1.144,2c-4,2.289-7.961,4.747-11.786,7.3l-1.277-1.911C335.454,108.017,339.464,105.531,343.505,103.214ZM616.031,393.535c-2.565,3.884-5.3,7.729-8.127,11.429l-1.827-1.4c2.8-3.658,5.5-7.459,8.035-11.3ZM320.2,118.791l1.405,1.82c-3.637,2.811-7.229,5.787-10.677,8.847l-1.526-1.72c3.485-3.095,7.118-6.1,10.8-8.947ZM599.011,415.807c-3.069,3.491-6.3,6.928-9.609,10.213l-1.62-1.632c3.271-3.249,6.468-6.647,9.5-10.1ZM300.875,139.01c-3.234,3.284-6.393,6.717-9.389,10.2l-1.744-1.5c3.03-3.527,6.224-7,9.494-10.32Zm-18.061,21.023c-2.757,3.7-5.417,7.528-7.906,11.391l-1.932-1.245c2.517-3.908,5.207-7.784,8-11.521Zm-15.007,23.3c-2.217,4.029-4.323,8.186-6.257,12.356l-2.086-.967c1.956-4.218,4.086-8.422,6.329-12.5Zm-11.648,25.118c-1.645,4.3-3.16,8.711-4.5,13.106l-2.2-.672c1.358-4.445,2.891-8.9,4.554-13.255Zm-8.1,26.494c-1.042,4.49-1.94,9.068-2.672,13.6l-2.269-.365c.738-4.588,1.647-9.217,2.7-13.759Zm-4.408,27.361c-.421,4.584-.689,9.241-.8,13.845l-2.3-.054c.109-4.656.38-9.367.805-14ZM243,290.021c.207,4.606.575,9.259,1.093,13.83l-2.284.259c-.525-4.622-.9-9.328-1.106-13.986Zm3.126,27.553c.834,4.537,1.833,9.1,2.97,13.555l-2.228.569c-1.151-4.508-2.161-9.12-3-13.709Zm6.865,26.876c1.445,4.379,3.06,8.76,4.8,13.023l-2.128.869c-1.761-4.311-3.4-8.743-4.858-13.172Zm10.492,25.685c2.031,4.132,4.233,8.244,6.544,12.226l-1.988,1.155c-2.338-4.027-4.565-8.187-6.619-12.365ZM277.4,394.106c2.578,3.809,5.324,7.58,8.162,11.211l-1.813,1.416c-2.869-3.671-5.646-7.486-8.253-11.337Z" transform="translate(-240.557 -76.249)" fill="#e6e6e6"/>
      <path id="Path_629" data-name="Path 629" d="M552.653,541.35a39.271,39.271,0,0,1-37.391-27.6,119.141,119.141,0,1,1,56.9-45.686,39.241,39.241,0,0,1-19.51,73.284Zm-36.075-30.259.3,1.066a37.215,37.215,0,1,0,53.381-42.86l-.976-.522.618-.918A117.141,117.141,0,1,0,515.548,511.5Z" transform="translate(-240.557 -76.249)" fill="#3f3d56"/>
      <path id="Path_630" data-name="Path 630" d="M537.3,390.439H407.862a6.047,6.047,0,0,1,0-12.095H537.3a6.047,6.047,0,1,1,0,12.095Z" transform="translate(-240.557 -76.249)" fill="#0e3fa6"/>
      <path id="Path_631" data-name="Path 631" d="M537.3,408.931H407.862a6.047,6.047,0,0,1,0-12.095H537.3a6.047,6.047,0,0,1,0,12.095Z" transform="translate(-240.557 -76.249)" fill="#0e3fa6"/>
      <path id="Path_632" data-name="Path 632" d="M537.3,427.422H407.862a6.048,6.048,0,1,1,0-12.1H537.3a6.048,6.048,0,1,1,0,12.1Z" transform="translate(-240.557 -76.249)" fill="#0e3fa6"/>
      <path id="Path_633" data-name="Path 633" d="M936.916,823.751h-266a5.006,5.006,0,0,1-5-5v-144.6a5.006,5.006,0,0,1,5-5h266a5.006,5.006,0,0,1,5,5v144.6A5.006,5.006,0,0,1,936.916,823.751Zm-266-152.6a3,3,0,0,0-3,3v144.6a3,3,0,0,0,3,3h266a3,3,0,0,0,3-3v-144.6a3,3,0,0,0-3-3Z" transform="translate(-240.557 -76.249)" fill="#3f3d56"/>
      <circle id="Ellipse_100" data-name="Ellipse 100" cx="6.192" cy="6.192" r="6.192" transform="translate(431.359 596.878)" fill="#fff"/>
      <circle id="Ellipse_101" data-name="Ellipse 101" cx="6.192" cy="6.192" r="6.192" transform="translate(448.167 596.878)" fill="#fff"/>
      <circle id="Ellipse_102" data-name="Ellipse 102" cx="6.192" cy="6.192" r="6.192" transform="translate(464.975 596.878)" fill="#fff"/>
      <path id="Path_634" data-name="Path 634" d="M725.7,471.746H692.987a4.515,4.515,0,0,1-3.549-1.711,4.413,4.413,0,0,1-.862-3.753,88.629,88.629,0,0,0,0-39.317,4.413,4.413,0,0,1,.863-3.753,4.515,4.515,0,0,1,3.549-1.711H725.7a4.492,4.492,0,0,1,4.46,3.872,144.856,144.856,0,0,1,0,42.5,4.492,4.492,0,0,1-4.46,3.872Z" transform="translate(-240.557 -76.249)" fill="#0e3fa6"/>
      <path id="Path_635" data-name="Path 635" d="M895.868,577.768H863.157a4.492,4.492,0,0,1-4.46-3.872,144.855,144.855,0,0,1,0-42.5,4.492,4.492,0,0,1,4.46-3.872h32.711a4.516,4.516,0,0,1,3.549,1.711,4.415,4.415,0,0,1,.863,3.754,88.63,88.63,0,0,0,0,39.317,4.415,4.415,0,0,1-.863,3.753A4.516,4.516,0,0,1,895.868,577.768Z" transform="translate(-240.557 -76.249)" fill="#ff6584"/>
      <path id="Path_636" data-name="Path 636" d="M874.7,537.095a10.743,10.743,0,0,0,1.148-16.433L878.7,398.891l-18.853,2.772.2,119.765A10.8,10.8,0,0,0,874.695,537.1Z" transform="translate(-240.557 -76.249)" fill="#ffb8b8"/>
      <path id="Path_637" data-name="Path 637" d="M723.9,415.006a10.531,10.531,0,0,1,.886,1.4l49.324,5.164L789.2,396.833l16.1,8.784-21.929,38.63-60.5-15.384a10.5,10.5,0,1,1,1.027-13.858Z" transform="translate(-240.557 -76.249)" fill="#ffb8b8"/>
      <path id="Path_638" data-name="Path 638" d="M514.808,583.563l-12.033-2.344,9.369-88.906,19.76,3.459Z" fill="#ffb8b8"/>
      <path id="Path_639" data-name="Path 639" d="M733.9,653.055h23.644v14.887h-38.53A14.887,14.887,0,0,1,733.9,653.055Z" transform="matrix(0.982, 0.191, -0.191, 0.982, -100.679, -205.2)" fill="#2f2e41"/>
      <path id="Path_640" data-name="Path 640" d="M600.574,583.855h-12.26l-5.832-66.439h18.094Z" fill="#ffb8b8"/>
      <path id="Path_641" data-name="Path 641" d="M579.557,580.351H603.2v14.887H564.67A14.887,14.887,0,0,1,579.557,580.351Z" fill="#2f2e41"/>
      <path id="Path_642" data-name="Path 642" d="M791.32,436.157,747,576.035s55.476,36.093,104.936,28.072c12.977-55.242,12.131-106.845-8.48-153.245Z" transform="translate(-240.557 -76.249)" fill="#2f2e41"/>
      <circle id="Ellipse_103" data-name="Ellipse 103" cx="31.553" cy="31.553" r="31.553" transform="translate(565.871 224.684)" fill="#2f2e41"/>
      <circle id="Ellipse_104" data-name="Ellipse 104" cx="24.561" cy="24.561" r="24.561" transform="translate(567.89 240.781)" fill="#ffb8b8"/>
      <path id="Path_643" data-name="Path 643" d="M789.314,387.365c-.212,1.32,3.342,14.7,3.342,14.7l-8.813,54.593,59.61-1.791,33.419-66.17c1.192-.521-5.49-8.245-10.026-11.362C860.59,373.039,790.6,379.341,789.314,387.365Z" transform="translate(-240.557 -76.249)" fill="#3f3d56"/>
      <path id="Path_644" data-name="Path 644" d="M792.656,388.034l-3.342-1.337s-12.031,18.715-8.021,20.72,14.036,6.684,14.036,6.684Z" transform="translate(-240.557 -76.249)" fill="#3f3d56"/>
      <path id="Path_645" data-name="Path 645" d="M868.852,383.355l8.021,5.347s6.684,26.067,0,25.4-22.057,3.342-22.725,2.005S868.852,383.355,868.852,383.355Z" transform="translate(-240.557 -76.249)" fill="#3f3d56"/>
      <ellipse id="Ellipse_105" data-name="Ellipse 105" cx="22.98" cy="13.788" rx="22.98" ry="13.788" transform="translate(570.639 233.348)" fill="#2f2e41"/>
      <path id="Path_646" data-name="Path 646" d="M837.525,306.507A9.109,9.109,0,0,1,834.7,295.35c1.413-2.824,4.2-4.659,6.856-6.362l10.852-6.944c4.533-2.9,9.222-5.864,14.523-6.791,8.689-1.52,17.665,2.9,23.387,9.616s8.62,15.4,10.269,24.065,2.177,17.516,3.85,26.177c2.593,13.431,8.153,26.608,17.793,36.314s23.728,15.5,37.211,13.194a35.2,35.2,0,0,1-21.613,9.222,45.81,45.81,0,0,1-23.2-4.786A54.5,54.5,0,0,1,886.7,356.325c-4.39-14.451-2.547-30.111-5.9-44.838-1.325-5.824-3.716-11.808-8.589-15.263s-12.732-3.136-15.854,1.956c2.84-.926,5.629,2.662,4.746,5.515s-4.125,4.416-7.112,4.387-5.8-1.28-8.573-2.4-5.727-2.152-8.682-1.718" transform="translate(-240.557 -76.249)" fill="#2f2e41"/>
      <path id="Path_647" data-name="Path 647" d="M479.7,553.746H446.987a4.515,4.515,0,0,1-3.549-1.711,4.414,4.414,0,0,1-.863-3.753,88.628,88.628,0,0,0,0-39.317,4.414,4.414,0,0,1,.863-3.753,4.515,4.515,0,0,1,3.549-1.711H479.7a4.492,4.492,0,0,1,4.46,3.872,144.859,144.859,0,0,1,0,42.5,4.492,4.492,0,0,1-4.46,3.872Z" transform="translate(-240.557 -76.249)" fill="#ccc"/>
      <path id="Path_648" data-name="Path 648" d="M860.915,734.319H731.475a6.047,6.047,0,0,1,0-12.095h129.44a6.047,6.047,0,0,1,0,12.095Z" transform="translate(-240.557 -76.249)" fill="#ccc"/>
      <path id="Path_649" data-name="Path 649" d="M860.915,752.811H731.475a6.047,6.047,0,0,1,0-12.095h129.44a6.047,6.047,0,0,1,0,12.095Z" transform="translate(-240.557 -76.249)" fill="#ccc"/>
      <path id="Path_650" data-name="Path 650" d="M860.915,771.3H731.475a6.048,6.048,0,0,1,0-12.1h129.44a6.048,6.048,0,0,1,0,12.1Z" transform="translate(-240.557 -76.249)" fill="#ccc"/>
    </g>
  </g>
</svg>
