<svg xmlns="http://www.w3.org/2000/svg" width="150" height="120" viewBox="0 0 500.5 492.255">
  <g id="undraw_Team_page_re_cffb_1_" data-name="undraw_Team_page_re_cffb (1)" transform="translate(0 0)">
    <path id="Path_401" data-name="Path 401" d="M693.635,234.408a444.5,444.5,0,0,1-3.871,57.139c-.088.665-.184,1.331-.273,2H510.532c-.529-.657-1.05-1.322-1.555-2-1.683-2.228-3.262-4.521-4.713-6.893-6.973-11.429-10.211-24.839-7.093-34.12l.056-.144a16.256,16.256,0,0,1,3.142-5.53c7.181-8.175,21.8-6.9,35.1-.409-11.966-12.952-21.528-29.327-22.33-43.987-.785-14.3,6.636-24.558,14.7-33.287.265-.289.529-.569.794-.85.128-.144.265-.281.393-.425,6.292-6.652,13.634-13.217,24.318-12.487,11.718.8,24.759,10.54,33.928,21.921s15.292,24.318,21.5,36.949,12.928,25.568,22.843,36.332C618.166,231.811,607.3,212.663,603.218,194s-.681-36.621,11.165-45.485a27.822,27.822,0,0,1,12.159-4.985c.513-.088,1.034-.16,1.563-.224,11-1.314,24.174,2.421,35.411,11.462,12.375,9.955,21,24.766,25.328,38.849S693.7,221.279,693.635,234.408Z" transform="translate(-329.103 -142.945)" fill="#f2f2f2"/>
    <path id="Path_402" data-name="Path 402" d="M577.416,320.135h-3.422q-1.635-1.01-3.286-2c-.681-.425-1.371-.834-2.06-1.25q-17.084-10.3-34.376-19.757-17.277-9.462-34.721-18.042a1.434,1.434,0,0,1-.834-1.635.413.413,0,0,1,.056-.12c.16-.3.521-.433,1.05-.176,1.426.705,2.861,1.411,4.288,2.132q17.493,8.728,34.842,18.338t34.481,20.07c.24.144.481.3.721.441C575.244,318.8,576.326,319.469,577.416,320.135Z" transform="translate(-329.639 -169.537)" fill="#fff"/>
    <path id="Path_403" data-name="Path 403" d="M628.883,299.305h-2.116c-.481-.665-.954-1.331-1.435-2q-16.951-23.492-33.9-46.984-27.748-38.46-55.48-76.92a1.361,1.361,0,0,1-.241-.465c-.16-.569.257-.906.794-.85a1.608,1.608,0,0,1,1.122.705q15.557,21.569,31.107,43.121l55.2,76.528c1.17,1.619,2.34,3.246,3.51,4.865C627.93,297.975,628.411,298.64,628.883,299.305Z" transform="translate(-336.983 -148.707)" fill="#fff"/>
    <path id="Path_404" data-name="Path 404" d="M700.408,280.965c-.088,3.567-.3,7.077-.593,10.556q-.084,1-.168,2h-2.22c.064-.665.128-1.331.184-2,.441-5.025.746-10.107.762-15.325a213.723,213.723,0,0,0-4.448-43.057,268.244,268.244,0,0,0-13.281-44.684,307.364,307.364,0,0,0-21.568-44.163,1.183,1.183,0,0,1-.2-.786c.088-.633.93-.826,1.563-.224a1.836,1.836,0,0,1,.32.4q1.551,2.633,3.046,5.282a307.15,307.15,0,0,1,20.655,44.323,266.964,266.964,0,0,1,12.4,44.756,210.858,210.858,0,0,1,3.551,42.921Z" transform="translate(-361.435 -142.918)" fill="#fff"/>
    <path id="Path_405" data-name="Path 405" d="M781.278,328.322H294.764a7,7,0,0,0-6.989,6.989V664.986a7,7,0,0,0,6.989,6.989H781.278a6.983,6.983,0,0,0,5.314-2.453,1.631,1.631,0,0,0,.152-.192,6.544,6.544,0,0,0,1-1.691,6.818,6.818,0,0,0,.529-2.653V335.311A7,7,0,0,0,781.278,328.322Zm5,336.664a4.948,4.948,0,0,1-.826,2.741,5.167,5.167,0,0,1-1.892,1.7,4.956,4.956,0,0,1-2.284.553H294.764a5,5,0,0,1-4.993-4.993V335.311a5,5,0,0,1,4.993-4.993H781.278a5,5,0,0,1,5,4.994Z" transform="translate(-287.775 -179.72)" fill="#3f3d56"/>
    <rect id="Rectangle_140" data-name="Rectangle 140" width="498.502" height="1.998" transform="translate(0.996 176.614)" fill="#3f3d56"/>
    <circle id="Ellipse_65" data-name="Ellipse 65" cx="5.994" cy="5.994" r="5.994" transform="translate(11.985 157.593)" fill="#3f3d56"/>
    <circle id="Ellipse_66" data-name="Ellipse 66" cx="5.994" cy="5.994" r="5.994" transform="translate(29.218 157.593)" fill="#3f3d56"/>
    <circle id="Ellipse_67" data-name="Ellipse 67" cx="5.994" cy="5.994" r="5.994" transform="translate(46.451 157.593)" fill="#3f3d56"/>
    <path id="Path_406" data-name="Path 406" d="M562.8,564.872c-5.995-3.9-8.976-12.971-7.508-21.265s7-15.438,13.632-18.518a21.36,21.36,0,0,1,20.22,1.437c6.081,3.718,14.681,5.755,17.569,13.195,2.219,5.717-.6,17.327-3.582,22.88-2.582,4.8-7.487,6.995-12.1,7.949a36.34,36.34,0,0,1-29.39-6.781Z" transform="translate(-340.803 -218.403)" fill="#2f2e41"/>
    <path id="Path_407" data-name="Path 407" d="M268,486.115l-4.793,8.264-.633,1.09-.922,1.6H247.526l.954-1.6,2.469-4.16,5.755-9.714,6.516,2.6Z" transform="translate(-49.133 -95.594)" fill="#ffb8b8"/>
    <path id="Path_408" data-name="Path 408" d="M533.262,634.639l-2.581-1.6-.321-.2,16.2-29.519a11.006,11.006,0,0,1,6.612-5.306,10.88,10.88,0,0,1,5.434-.2,10.7,10.7,0,0,1,3,1.122,10.48,10.48,0,0,1,1.114.705,10.7,10.7,0,0,1,3.286,3.7,11.074,11.074,0,0,1-.337,11.181l-6.244,9.979-5.338,8.536-1,1.6H533.263Z" transform="translate(-335.927 -233.162)" fill="#2f2e41"/>
    <circle id="Ellipse_68" data-name="Ellipse 68" cx="19.686" cy="19.686" r="19.686" transform="translate(219.267 317.575)" fill="#ffb8b8"/>
    <path id="Path_409" data-name="Path 409" d="M599.374,634.045H555.123l.2-.569q-.168-.517-.313-1.034c-.1-.361-.193-.729-.272-1.09a24.2,24.2,0,0,1,.008-10.179c2.445-12.007,12.2-21.761,12.2-21.761.168-.128.337-.248.5-.369a22.273,22.273,0,0,1,4.689-2.629c7.246-3.006,14.844-1.8,19.949-.24a39.816,39.816,0,0,1,5.2,1.98c.593.28.914.457.914.457l.5,15.4.609,18.435Z" transform="translate(-340.659 -232.568)" fill="#0e3fa6"/>
    <path id="Path_410" data-name="Path 410" d="M629.227,631.955l-3.383-17.2L622.43,597.41a3.622,3.622,0,0,0-2.926-2.861l-7.149-1.234-6.652-1.146a3.574,3.574,0,0,0-3.455,1.323,3.535,3.535,0,0,0-.778,2.2,3.622,3.622,0,0,0,.3,1.435c3.471,8.1,3.535,20.911,2.653,34.833-.04.529-.072,1.066-.112,1.6h25.24Z" transform="translate(-350.042 -232.081)" fill="#2f2e41"/>
    <path id="Path_411" data-name="Path 411" d="M568.685,596.193a3.628,3.628,0,0,0-5.731-1.988l-3.07,2.789L547.317,608.44a3.484,3.484,0,0,0-.9,1.274c-1.419,3.39-4.184,10.083-7.4,18.346q-.781,2.02-1.611,4.16c-.193.529-.4,1.066-.609,1.6h20.711c.168-.537.337-1.074.5-1.6.922-2.909,1.819-5.763,2.685-8.536,2.533-8.055,4.817-15.373,6.58-21.16q.733-2.4,1.338-4.44a3.629,3.629,0,0,0,.064-1.892Z" transform="translate(-337.205 -232.347)" fill="#2f2e41"/>
    <path id="Path_412" data-name="Path 412" d="M349.842,496.075h1.339l-.184-.449-.489-1.154-7.542-17.9-1.154.7-9.265,5.6,4.753,11.6.657,1.6h11.886Z" transform="translate(-66.009 -94.597)" fill="#ffb8b8"/>
    <path id="Path_413" data-name="Path 413" d="M627.054,600.017a11.078,11.078,0,0,0-13.874-6.548,9.937,9.937,0,0,0-1.018.4,10.937,10.937,0,0,0-4.665,3.951,10.581,10.581,0,0,0-1.146,2.22,11.014,11.014,0,0,0,.249,8.472l2.316,5.162,8.287,18.435.721,1.6H634.7l1.154-.449,3-1.154.417-.16Z" transform="translate(-350.866 -232.235)" fill="#2f2e41"/>
    <path id="Path_414" data-name="Path 414" d="M602.824,532.678a3.257,3.257,0,0,0,3.7-1.406,4.689,4.689,0,0,0,.271-4.122,8.6,8.6,0,0,0-2.561-3.378,9.943,9.943,0,0,0-4.5-2.331,5.98,5.98,0,0,0-4.851,1.066,4.31,4.31,0,0,0-1.463,4.587,6.356,6.356,0,0,0,3.269,3.206,21.716,21.716,0,0,0,8.847,2.515Z" transform="translate(-348.41 -218.026)" fill="#2f2e41"/>
    <path id="Path_415" data-name="Path 415" d="M600.949,557.387c-3.165.436-2.758-1.175-4.026-4.107s-2.964-6.414-6.145-6.711c-2.607-.243-4.755,1.841-6.867,3.388-3.764,2.758-8.837,4.108-13.2,2.454s-7.4-6.855-5.74-11.218a9.572,9.572,0,0,1,5.536-5.233,19.26,19.26,0,0,1,7.713-1.071,39.792,39.792,0,0,1,16.722,4.281c3.585,1.821,7.074,4.427,8.434,8.211s2.255,9.1-1.634,10.124Z" transform="translate(-342.706 -220.714)" fill="#2f2e41"/>
    <path id="Path_416" data-name="Path 416" d="M602.794,520.045c-1.565-2.723-.273-6.459,2.286-8.279s5.993-2,9.048-1.268a17.766,17.766,0,0,1,12.744,12.352c1.3,4.762.525,9.877,1.623,14.688a19.275,19.275,0,0,0,24.223,14.207c3.288-.966,6.629-3.313,6.952-6.724A18.85,18.85,0,0,1,648.507,563.9c-4.236,1.767-8.961,1.882-13.549,1.765a24.247,24.247,0,0,1-8.807-1.414,15.763,15.763,0,0,1-8.282-8.98,24.951,24.951,0,0,1-1.1-12.371c.451-3.229,1.349-6.393,1.6-9.644s-.225-6.721-2.229-9.293-5.832-3.885-8.681-2.3c-1.145.637-2.069,1.677-3.313,2.088s-3.007-.311-2.894-1.617Z" transform="translate(-349.997 -215.801)" fill="#2f2e41"/>
    <path id="Path_417" data-name="Path 417" d="M770.781,630.341l.152-1.6,4.521-47.032a28.785,28.785,0,0,1,4.753-3.022c9.305-4.689,18.282-2.445,23.139-.5A25.311,25.311,0,0,1,807.065,580l2.645,48.74.088,1.6Z" transform="translate(-383.649 -228.864)" fill="#0e3fa6"/>
    <circle id="Ellipse_69" data-name="Ellipse 69" cx="19.686" cy="19.686" r="19.686" transform="translate(388.616 300.952)" fill="#ffb8b8"/>
    <path id="Path_418" data-name="Path 418" d="M806.942,547.169a10.716,10.716,0,0,0-8.131-18.085c-2.722.091-5.287,1.2-7.885,2.023a26.077,26.077,0,0,1-12.251,1.1,16.358,16.358,0,0,1-10.433-6.16,11.987,11.987,0,0,1-1.475-11.756c1.987-4.347,6.627-6.742,10.992-8.688a20.089,20.089,0,0,1,5.58-1.833,7.157,7.157,0,0,1,5.552,1.4c1.227,1.055,1.946,2.641,3.28,3.555,1.5,1.029,3.454,1,5.267,1.184a20.2,20.2,0,0,1,9.784,36.5Z" transform="translate(-382.667 -214.526)" fill="#2f2e41"/>
    <path id="Path_419" data-name="Path 419" d="M776.262,587.114l-2.933-8.143-.183-.508a1.686,1.686,0,0,0-2.522-.831l-3.331,2.22s-21.36,0-23.075,12.816c-.024.2-.056.425-.08.665a.124.124,0,0,1-.008.032c-.216.842-4.248,16.423-7.711,35.659-.1.529-.192,1.066-.288,1.6h46.415C784.057,611.3,783.211,593.337,776.262,587.114Z" transform="translate(-376.771 -229.15)" fill="#2f2e41"/>
    <path id="Path_420" data-name="Path 420" d="M844.087,629.025c-2.532-19.733-6.155-35.691-6.155-35.691-.032-.24-.064-.465-.088-.665-1.707-12.816-23.067-12.816-23.067-12.816l-3.329-2.219a1.687,1.687,0,0,0-2.523.832l-3.117,8.648c-6.949,6.224-7.794,24.19-6.284,43.513h44.764C844.224,630.091,844.152,629.554,844.087,629.025Z" transform="translate(-389.228 -229.15)" fill="#2f2e41"/>
    <path id="Path_421" data-name="Path 421" d="M381.79,585.554l-4.761,44.932-.168,1.6h-12.88c.152-.521.3-1.058.465-1.6,3.655-12.536,8.632-30.834,8.095-35.683-.841-7.566,5.05-10.091,5.05-10.091l.369.072Z" transform="translate(-302.902 -230.612)" fill="#0e3fa6"/>
    <circle id="Ellipse_70" data-name="Ellipse 70" cx="19.686" cy="19.686" r="19.686" transform="translate(79.976 301.701)" fill="#a0616a"/>
    <path id="Path_422" data-name="Path 422" d="M430.181,620.916a32.276,32.276,0,0,0-2.428,5.739c-.232.705-.457,1.443-.665,2.2-.152.521-.288,1.058-.425,1.6H374.741c.072-.529.136-1.066.209-1.6,2.653-20.959,4.8-42.231,5.146-45.7.032-.329.048-.5.048-.5,31.114-16.4,53.821,5.049,53.821,5.049s.032.152.08.449C434.541,591.148,437.074,608.653,430.181,620.916Z" transform="translate(-305.037 -228.977)" fill="#0e3fa6"/>
    <path id="Path_423" data-name="Path 423" d="M440.024,629.532l-3.462-7.422.841-29.431,8.913-1.651.313-.056a23.6,23.6,0,0,1,10.115,11.8c1.731,4.328,5.025,17.345,7.807,28.958.128.537.256,1.074.385,1.6H441.795l-.746-1.6Z" transform="translate(-317.308 -231.854)" fill="#0e3fa6"/>
    <path id="Path_424" data-name="Path 424" d="M449.92,478.822H336.09a9.221,9.221,0,0,0-9.209,9.209v113.83a9.221,9.221,0,0,0,9.209,9.209H449.92a9.215,9.215,0,0,0,9.209-9.209V488.031a9.215,9.215,0,0,0-9.209-9.209Zm7.606,123.039a7.613,7.613,0,0,1-7.606,7.606H336.09a7.618,7.618,0,0,1-7.606-7.606V488.031a7.618,7.618,0,0,1,7.607-7.606H449.92a7.613,7.613,0,0,1,7.606,7.606Zm-87.861,7.606-.168,1.6h47.666c.136-.545.272-1.082.425-1.6Z" transform="translate(-295.537 -209.593)" fill="#3f3d56"/>
    <path id="Path_425" data-name="Path 425" d="M640.53,478.822H526.7a9.22,9.22,0,0,0-9.209,9.209v113.83a9.221,9.221,0,0,0,9.209,9.209H640.53a9.215,9.215,0,0,0,9.209-9.209V488.031a9.215,9.215,0,0,0-9.209-9.209Zm7.606,123.039a7.613,7.613,0,0,1-7.606,7.606H526.7a7.618,7.618,0,0,1-7.606-7.606V488.031a7.618,7.618,0,0,1,7.606-7.606H640.53a7.612,7.612,0,0,1,7.606,7.606Zm-100.413,7.606q.144.517.313,1.034l-.2.569h39.8c.04-.537.072-1.074.112-1.6Z" transform="translate(-333.372 -209.593)" fill="#3f3d56"/>
    <path id="Path_426" data-name="Path 426" d="M831.15,478.822H717.32a9.215,9.215,0,0,0-9.209,9.209v113.83a9.215,9.215,0,0,0,9.209,9.209H831.15a9.22,9.22,0,0,0,9.209-9.209V488.031a9.22,9.22,0,0,0-9.209-9.209Zm7.606,123.039a7.618,7.618,0,0,1-7.606,7.606H717.32a7.613,7.613,0,0,1-7.607-7.606V488.031a7.613,7.613,0,0,1,7.607-7.606H831.15a7.618,7.618,0,0,1,7.606,7.606ZM777.1,609.467c-.04.529-.08,1.066-.12,1.6h34.537c.064-.529.136-1.066.2-1.6Z" transform="translate(-371.21 -209.593)" fill="#3f3d56"/>
    <path id="Path_427" data-name="Path 427" d="M697.9,698.646h-264.5a6.412,6.412,0,0,1,0-12.824H697.9a6.412,6.412,0,1,1,0,12.824Z" transform="translate(-315.41 -250.682)" fill="#ccc"/>
    <path id="Path_428" data-name="Path 428" d="M642.126,433.646H525.908a6.412,6.412,0,1,1,0-12.824H642.126a6.412,6.412,0,0,1,0,12.824Z" transform="translate(-333.77 -198.081)" fill="#0e3fa6"/>
    <path id="Path_429" data-name="Path 429" d="M415.14,554.236a3.889,3.889,0,0,0,5.086.326,34.566,34.566,0,0,0,11.123-12.942c2.762-5.983,3.07-13.325-.26-19.012-2.815-4.807-7.786-7.909-12.741-10.456a22.662,22.662,0,0,0-6.151-2.371,8.766,8.766,0,0,0-6.373,1.028,5.5,5.5,0,0,0-2.485,5.683,20.716,20.716,0,0,0-8.843-5.936,11.435,11.435,0,0,0-6.753-.49c-3.144.892-5.439,3.685-6.695,6.7a13.4,13.4,0,0,0-1.012,7.314,8.934,8.934,0,0,0,3.9,6.119c2.6,1.608,5.916,1.492,8.9.835s5.875-1.8,8.918-2.089,6.432.47,8.283,2.9c1.3,1.713,1.639,3.95,1.932,6.083l1.523,11.092a13.53,13.53,0,0,0,1.21,4.635,2.671,2.671,0,0,0,.431.576Z" transform="translate(-306.062 -215.698)" fill="#2f2e41"/>
  </g>
</svg>
