<svg xmlns="http://www.w3.org/2000/svg" width="120" height="120" viewBox="0 0 554 461.771">
  <g id="undraw_empty_cart_co35_1_" data-name="undraw_empty_cart_co35 (1)" transform="translate(0.486 0)">
    <path id="Path_381" data-name="Path 381" d="M190.664,769.42c7.673,14.23,23.957,20.338,23.957,20.338s3.844-16.962-3.828-31.192-23.957-20.338-23.957-20.338S182.992,755.19,190.664,769.42Z" transform="translate(-165.023 -329.4)" fill="#2f2e41"/>
    <path id="Path_382" data-name="Path 382" d="M182.978,777.553c13.853,8.334,19.188,24.888,19.188,24.888s-17.125,3.042-30.977-5.293S152,772.261,152,772.261,169.124,769.219,182.978,777.553Z" transform="translate(-152.062 -342.215)" fill="#0e3fa6"/>
    <rect id="Rectangle_98" data-name="Rectangle 98" width="86.431" height="1.235" transform="translate(255.064 22.168)" fill="#f2f2f2"/>
    <rect id="Rectangle_99" data-name="Rectangle 99" width="1.235" height="11.421" transform="translate(316.8 23.094)" fill="#f2f2f2"/>
    <rect id="Rectangle_100" data-name="Rectangle 100" width="1.235" height="11.421" transform="translate(279.141 23.094)" fill="#f2f2f2"/>
    <rect id="Rectangle_101" data-name="Rectangle 101" width="86.431" height="1.235" transform="translate(298.897 81.435)" fill="#f2f2f2"/>
    <rect id="Rectangle_102" data-name="Rectangle 102" width="1.235" height="11.421" transform="translate(322.356 70.323)" fill="#f2f2f2"/>
    <rect id="Rectangle_103" data-name="Rectangle 103" width="1.235" height="11.421" transform="translate(360.015 70.323)" fill="#f2f2f2"/>
    <rect id="Rectangle_104" data-name="Rectangle 104" width="86.431" height="1.235" transform="translate(413.726 109.217)" fill="#f2f2f2"/>
    <rect id="Rectangle_105" data-name="Rectangle 105" width="1.235" height="11.421" transform="translate(437.186 98.104)" fill="#f2f2f2"/>
    <rect id="Rectangle_106" data-name="Rectangle 106" width="1.235" height="11.421" transform="translate(474.845 98.104)" fill="#f2f2f2"/>
    <rect id="Rectangle_107" data-name="Rectangle 107" width="86.431" height="1.235" transform="translate(405.083 395.674)" fill="#f2f2f2"/>
    <rect id="Rectangle_108" data-name="Rectangle 108" width="1.235" height="11.421" transform="translate(428.543 384.562)" fill="#f2f2f2"/>
    <rect id="Rectangle_109" data-name="Rectangle 109" width="1.235" height="11.421" transform="translate(466.202 384.562)" fill="#f2f2f2"/>
    <rect id="Rectangle_110" data-name="Rectangle 110" width="86.431" height="1.235" transform="translate(257.533 197.5)" fill="#f2f2f2"/>
    <rect id="Rectangle_111" data-name="Rectangle 111" width="1.235" height="11.421" transform="translate(280.993 186.387)" fill="#f2f2f2"/>
    <rect id="Rectangle_112" data-name="Rectangle 112" width="1.235" height="11.421" transform="translate(318.652 186.387)" fill="#f2f2f2"/>
    <rect id="Rectangle_113" data-name="Rectangle 113" width="86.431" height="1.235" transform="translate(284.697 346.285)" fill="#f2f2f2"/>
    <rect id="Rectangle_114" data-name="Rectangle 114" width="1.235" height="11.421" transform="translate(308.157 335.172)" fill="#f2f2f2"/>
    <rect id="Rectangle_115" data-name="Rectangle 115" width="1.235" height="11.421" transform="translate(345.816 335.172)" fill="#f2f2f2"/>
    <rect id="Rectangle_116" data-name="Rectangle 116" width="86.431" height="1.235" transform="translate(422.987 301.217)" fill="#f2f2f2"/>
    <rect id="Rectangle_117" data-name="Rectangle 117" width="1.235" height="11.421" transform="translate(446.446 290.105)" fill="#f2f2f2"/>
    <rect id="Rectangle_118" data-name="Rectangle 118" width="1.235" height="11.421" transform="translate(484.106 290.105)" fill="#f2f2f2"/>
    <path id="Path_383" data-name="Path 383" d="M271.457,661.3H125.274v-1.051H270.405V609.246H137.563L131.11,595.8l.948-.455,6.167,12.847H271.457Z" transform="translate(-47.996 -227.801)" fill="#2f2e41"/>
    <circle id="Ellipse_61" data-name="Ellipse 61" cx="11.043" cy="11.043" r="11.043" transform="translate(85.692 437.185)" fill="#3f3d56"/>
    <circle id="Ellipse_62" data-name="Ellipse 62" cx="11.043" cy="11.043" r="11.043" transform="translate(194.541 437.185)" fill="#3f3d56"/>
    <circle id="Ellipse_63" data-name="Ellipse 63" cx="6.836" cy="6.836" r="6.836" transform="translate(327.052 206.867)" fill="#3f3d56"/>
    <path id="Path_384" data-name="Path 384" d="M415.512,593.741H251.2l-35.553-116.21H452.127l-.215.684ZM251.979,592.69H414.741l35.952-114.108H217.07Z" transform="translate(-176.416 -229.649)" fill="#2f2e41"/>
    <path id="Path_385" data-name="Path 385" d="M257.808,516.08H113.488L82.26,413.015H289.967l-.189.607Z" transform="translate(-31.537 -158.034)" fill="#f2f2f2"/>
    <path id="Path_386" data-name="Path 386" d="M450.835,368.321l-1.017-.27,6.94-26.157h40.369v1.052h-39.56Z" transform="translate(-172.178 -130.821)" fill="#2f2e41"/>
    <rect id="Rectangle_119" data-name="Rectangle 119" width="213.172" height="1.052" transform="translate(50.722 283.114)" fill="#2f2e41"/>
    <rect id="Rectangle_120" data-name="Rectangle 120" width="189.111" height="1.052" transform="translate(62.576 321.86)" fill="#2f2e41"/>
    <rect id="Rectangle_121" data-name="Rectangle 121" width="1.052" height="115.159" transform="translate(156.943 248.408)" fill="#2f2e41"/>
    <rect id="Rectangle_122" data-name="Rectangle 122" width="115.403" height="1.052" transform="matrix(0.065, -0.998, 0.998, 0.065, 197.532, 363.532)" fill="#2f2e41"/>
    <rect id="Rectangle_123" data-name="Rectangle 123" width="1.052" height="115.403" transform="translate(108.829 248.441) rotate(-3.729)" fill="#2f2e41"/>
    <rect id="Rectangle_124" data-name="Rectangle 124" width="554" height="1" transform="translate(-0.486 459.8)" fill="#2f2e41"/>
    <path id="Path_387" data-name="Path 387" d="M747.411,136.8s9.025,25.686,3.471,29.638,18.744,36.224,18.744,36.224l29.157-7.9-15.967-27s-2.083-27-2.083-30.955S747.411,136.8,747.411,136.8Z" transform="translate(-379.887 -98.602)" fill="#a0616a"/>
    <path id="Path_388" data-name="Path 388" d="M747.411,136.8s9.025,25.686,3.471,29.638,18.744,36.224,18.744,36.224l29.157-7.9-15.967-27s-2.083-27-2.083-30.955S747.411,136.8,747.411,136.8Z" transform="translate(-379.887 -98.602)" opacity="0.1"/>
    <path id="Path_389" data-name="Path 389" d="M722.148,422.427s-2.635,32.931,0,50.055,6.586,64.545,6.586,64.545,0,89.573,14.49,90.89,25.028,2.635,26.345-2.634-6.586-7.9-2.634-10.538,5.269-11.855,0-22.393,0-117.235,0-117.235L791.962,542.3s2.635,55.324,5.269,63.227-2.635,22.393,6.586,23.71,19.759-6.586,25.028-9.221-7.9-2.635-5.269-3.952,10.538-5.269,7.9-6.586-5.269-64.545-5.269-64.545-7.245-135.017-16.466-140.286-15.148,3.807-15.148,3.807Z" transform="translate(-369.772 -201.13)" fill="#2f2e41"/>
    <path id="Path_390" data-name="Path 390" d="M758.013,758.784v10.538s-11.855,28.645,0,28.645,21.076,2.968,21.076-.983V761.418Z" transform="translate(-381.927 -337.266)" fill="#2f2e41"/>
    <path id="Path_391" data-name="Path 391" d="M874.1,758.754v10.538s11.855,28.645,0,28.645-21.076,2.969-21.076-.983V761.388Z" transform="translate(-420.299 -337.254)" fill="#2f2e41"/>
    <circle id="Ellipse_64" data-name="Ellipse 64" cx="23.71" cy="23.71" r="23.71" transform="translate(362.255 9.879)" fill="#a0616a"/>
    <path id="Path_392" data-name="Path 392" d="M763.914,201.9s6.586,19.759,17.124,15.807l10.538-3.952,18.442,126.456s-14.49,21.076-35.566,7.9S763.914,201.9,763.914,201.9Z" transform="translate(-385.193 -124.183)" fill="#0e3fa6"/>
    <path id="Path_393" data-name="Path 393" d="M795.418,187.743l5.927-12.514s34.907,16.466,40.176,21.735,5.269,13.172,5.269,13.172l-9.221,32.931s2.635,72.448,2.635,75.083,9.221,17.124,2.635,11.855-7.9-10.538-13.172-2.634-17.124,17.124-17.124,17.124Z" transform="translate(-398.256 -113.977)" fill="#3f3d56"/>
    <path id="Path_394" data-name="Path 394" d="M855.744,349.122,851.792,386s-23.71,21.076-18.441,22.393,7.9-3.952,7.9-3.952,9.221,9.221,14.49,3.952,18.441-55.324,18.441-55.324Z" transform="translate(-412.478 -180.515)" fill="#a0616a"/>
    <path id="Path_395" data-name="Path 395" d="M761.051,76.095c-5.256-.188-10.881-.281-15.313,2.552a22.417,22.417,0,0,0-5.292,5.181c-4.316,5.457-8.046,12.322-6.443,19.092l1.862-.726a12.193,12.193,0,0,1-1.176,5.224c.262-.762,1.14.47.905,1.242l-2.051,6.73a6.336,6.336,0,0,1,8.08,4.821c.234-7.817,1.045-16.78,7.386-21.357,3.2-2.308,7.245-3.013,11.138-3.638,3.592-.577,7.358-1.128,10.8.055s6.37,4.7,5.59,8.255c1.586-.546,3.361.559,4.145,2.043a10.729,10.729,0,0,1,.849,4.911c1.691,1.2,3.615-1.178,4.3-3.131,1.618-4.584,3.056-9.463,2.184-14.244s-4.768-9.352-9.629-9.368a3.375,3.375,0,0,0,.878-2.376l-4.006-.339a4.428,4.428,0,0,0,2.646-1.395C776.3,81.4,763.652,76.187,761.051,76.095Z" transform="translate(-374.58 -76.014)" fill="#2f2e41"/>
    <path id="Path_396" data-name="Path 396" d="M742.717,182.967s-10.723-10.508-14.582-9.864-9.128,9.864-9.128,9.864-31.614,10.538-30.3,21.076,15.807,61.91,15.807,61.91,11.855,61.911,1.317,68.5,50.055,23.71,51.372,15.807,3.952-86.938,0-98.793S742.717,182.967,742.717,182.967Z" transform="translate(-357.41 -113.153)" fill="#3f3d56"/>
    <path id="Path_397" data-name="Path 397" d="M850.893,223.236h16.288s11.375,50.055,12.691,55.325,3.952,30.3,2.635,30.3-27.662-5.269-27.662-1.317Z" transform="translate(-419.483 -132.346)" fill="#3f3d56"/>
    <path id="Path_398" data-name="Path 398" d="M808.406,373.889H746.052c-6.085-27.991-6.593-55.036,0-80.875h62.354C798.344,318.388,797.714,345.247,808.406,373.889Z" transform="translate(-377.547 -159.046)" fill="#f2f2f2"/>
    <path id="Path_399" data-name="Path 399" d="M707.938,361.077l18.441,7.9s35.566,5.269,35.566-9.221-35.566-6.586-35.566-6.586l-11.856-3.791Z" transform="translate(-364.783 -180.615)" fill="#a0616a"/>
    <path id="Path_400" data-name="Path 400" d="M696.466,210.435l-15.807,3.952L668.8,284.2s-3.952,18.441,2.635,19.759,25.028,11.855,25.028,11.855,2.634-19.759,7.9-19.759L691.2,285.518l7.9-46.1Z" transform="translate(-349.359 -127.448)" fill="#3f3d56"/>
    <rect id="Rectangle_125" data-name="Rectangle 125" width="86.431" height="1.235" transform="translate(37.134 217.873)" fill="#f2f2f2"/>
    <rect id="Rectangle_126" data-name="Rectangle 126" width="1.235" height="11.421" transform="translate(60.594 206.761)" fill="#f2f2f2"/>
    <rect id="Rectangle_127" data-name="Rectangle 127" width="1.235" height="11.421" transform="translate(98.253 206.761)" fill="#f2f2f2"/>
    <rect id="Rectangle_128" data-name="Rectangle 128" width="86.431" height="1.235" transform="translate(67.384 35.133)" fill="#f2f2f2"/>
    <rect id="Rectangle_129" data-name="Rectangle 129" width="1.235" height="11.421" transform="translate(129.121 36.059)" fill="#f2f2f2"/>
    <rect id="Rectangle_130" data-name="Rectangle 130" width="1.235" height="11.421" transform="translate(91.462 36.059)" fill="#f2f2f2"/>
    <rect id="Rectangle_131" data-name="Rectangle 131" width="86.431" height="1.235" transform="translate(154.433 156.754)" fill="#f2f2f2"/>
    <rect id="Rectangle_132" data-name="Rectangle 132" width="1.235" height="11.421" transform="translate(216.17 157.68)" fill="#f2f2f2"/>
    <rect id="Rectangle_133" data-name="Rectangle 133" width="1.235" height="11.421" transform="translate(178.511 157.68)" fill="#f2f2f2"/>
    <rect id="Rectangle_134" data-name="Rectangle 134" width="86.431" height="1.235" transform="translate(7.5 156.137)" fill="#f2f2f2"/>
    <rect id="Rectangle_135" data-name="Rectangle 135" width="1.235" height="11.421" transform="translate(69.236 157.063)" fill="#f2f2f2"/>
    <rect id="Rectangle_136" data-name="Rectangle 136" width="1.235" height="11.421" transform="translate(31.577 157.063)" fill="#f2f2f2"/>
    <rect id="Rectangle_137" data-name="Rectangle 137" width="86.431" height="1.235" transform="translate(111.218 94.4)" fill="#f2f2f2"/>
    <rect id="Rectangle_138" data-name="Rectangle 138" width="1.235" height="11.421" transform="translate(134.678 83.288)" fill="#f2f2f2"/>
    <rect id="Rectangle_139" data-name="Rectangle 139" width="1.235" height="11.421" transform="translate(172.337 83.288)" fill="#f2f2f2"/>
  </g>
</svg>
