<svg id="undraw_fast_loading_0lbh_2_" data-name="undraw_fast_loading_0lbh (2)" xmlns="http://www.w3.org/2000/svg" xmlns:xlink="http://www.w3.org/1999/xlink" width="602.515" height="476.884" viewBox="0 0 602.515 476.884">
  <defs>
    <linearGradient id="linear-gradient" x1="0.5" y1="1" x2="0.5" gradientUnits="objectBoundingBox">
      <stop offset="0" stop-color="gray" stop-opacity="0.251"/>
      <stop offset="0.54" stop-color="gray" stop-opacity="0.122"/>
      <stop offset="1" stop-color="gray" stop-opacity="0.102"/>
    </linearGradient>
    <linearGradient id="linear-gradient-4" x1="0.5" x2="0.5" xlink:href="#linear-gradient"/>
  </defs>
  <g id="Group_10" data-name="Group 10" transform="translate(33.465)" opacity="0.5">
    <rect id="Rectangle_74" data-name="Rectangle 74" width="213.842" height="323.247" rx="4.5" fill="url(#linear-gradient)"/>
  </g>
  <rect id="Rectangle_75" data-name="Rectangle 75" width="208.36" height="316.711" rx="4.5" transform="translate(36.202 2.373)" fill="#f2f2f2"/>
  <g id="Group_11" data-name="Group 11" transform="translate(57.041 60.718)" opacity="0.5">
    <rect id="Rectangle_76" data-name="Rectangle 76" width="41.671" height="37.507" rx="4.5" fill="#0e3fa6"/>
  </g>
  <rect id="Rectangle_77" data-name="Rectangle 77" width="112.514" height="4.17" rx="2.085" transform="translate(111.216 60.718)" fill="#e0e0e0"/>
  <rect id="Rectangle_78" data-name="Rectangle 78" width="93.531" height="4.17" rx="2.085" transform="translate(111.216 73.216)" fill="#e0e0e0"/>
  <g id="Group_12" data-name="Group 12" transform="translate(57.041 119.057)" opacity="0.5">
    <rect id="Rectangle_79" data-name="Rectangle 79" width="41.671" height="37.507" rx="4.5" fill="#0e3fa6"/>
  </g>
  <rect id="Rectangle_80" data-name="Rectangle 80" width="112.514" height="4.17" rx="2.085" transform="translate(111.216 119.057)" fill="#e0e0e0"/>
  <rect id="Rectangle_81" data-name="Rectangle 81" width="112.514" height="4.17" rx="2.085" transform="translate(111.216 131.556)" fill="#e0e0e0"/>
  <g id="Group_13" data-name="Group 13" transform="translate(57.041 177.397)" opacity="0.5">
    <rect id="Rectangle_82" data-name="Rectangle 82" width="41.671" height="37.507" rx="4.5" fill="#0e3fa6"/>
  </g>
  <rect id="Rectangle_83" data-name="Rectangle 83" width="112.514" height="4.17" rx="2.085" transform="translate(111.216 177.397)" fill="#e0e0e0"/>
  <rect id="Rectangle_84" data-name="Rectangle 84" width="12.504" height="4.17" rx="2.085" transform="translate(111.216 189.901)" fill="#e0e0e0"/>
  <g id="Group_14" data-name="Group 14" transform="translate(166.53 104.078)" opacity="0.5">
    <rect id="Rectangle_85" data-name="Rectangle 85" width="210.637" height="190.003" rx="4.5" fill="url(#linear-gradient)"/>
  </g>
  <rect id="Rectangle_86" data-name="Rectangle 86" width="204.484" height="184.036" rx="4.5" transform="translate(169.785 105.984)" fill="#fff"/>
  <g id="Group_15" data-name="Group 15" transform="translate(189.863 145.525)" opacity="0.5">
    <rect id="Rectangle_87" data-name="Rectangle 87" width="43.935" height="39.541" rx="4.5" fill="#0e3fa6"/>
  </g>
  <rect id="Rectangle_88" data-name="Rectangle 88" width="118.623" height="4.394" rx="2.197" transform="translate(246.98 145.525)" fill="#e0e0e0"/>
  <rect id="Rectangle_89" data-name="Rectangle 89" width="118.623" height="4.394" rx="2.197" transform="translate(246.98 158.707)" fill="#e0e0e0"/>
  <rect id="Rectangle_90" data-name="Rectangle 90" width="180.134" height="4.394" rx="2.197" transform="translate(185.468 206.544)" fill="#e0e0e0"/>
  <rect id="Rectangle_91" data-name="Rectangle 91" width="180.134" height="4.394" rx="2.197" transform="translate(185.468 219.726)" fill="#e0e0e0"/>
  <rect id="Rectangle_92" data-name="Rectangle 92" width="180.134" height="4.394" rx="2.197" transform="translate(185.468 237.296)" fill="#e0e0e0"/>
  <rect id="Rectangle_93" data-name="Rectangle 93" width="136.199" height="4.394" rx="2.197" transform="translate(185.468 250.479)" fill="#e0e0e0"/>
  <g id="Group_16" data-name="Group 16" transform="translate(0 163.812)" opacity="0.5">
    <path id="Path_326" data-name="Path 326" d="M511.258,346.236h0l.748-3.339-1.049,3.262A326.242,326.242,0,0,0,427.3,334.877c-203.6-1.2-298.3,178.74-298.3,178.74l192.946,101.8s23.666-73.389,107.717-71a144.664,144.664,0,0,1,17.27,1.509l-25.572,79.651a14.2,14.2,0,1,0,23.71,15.607h0v-.038a14.116,14.116,0,0,0,2.092-7.164,12.145,12.145,0,0,0-.045-1.279l18.485-82.6c55.071,16.937,71.758,65.3,71.758,65.3l194.154-97.061S658.6,386.25,511.258,346.236Z" transform="translate(-129 -334.871)" fill="url(#linear-gradient)"/>
  </g>
  <path id="Path_327" data-name="Path 327" d="M429.5,338c-201-1.17-294.5,176.463-294.5,176.463l190.489,100.49s23.371-72.455,106.348-70.121a142.763,142.763,0,0,1,17.455,1.548l63.079-197.161A322.077,322.077,0,0,0,429.5,338Z" transform="translate(-131.162 -172.184)" fill="#0e3fa6"/>
  <path id="Path_328" data-name="Path 328" d="M689.459,355.54,626.38,552.72c68.835,10.458,88.887,68.554,88.887,68.554l191.66-95.814S834.913,395.042,689.459,355.54Z" transform="translate(-308.25 -178.508)" fill="#e0e0e0"/>
  <path id="Path_329" data-name="Path 329" d="M610.245,636.5,674.283,350.38,584.788,629.462a14.02,14.02,0,1,0,23.4,15.408h0v-.038a13.937,13.937,0,0,0,2.066-7.068A7.6,7.6,0,0,0,610.245,636.5Z" transform="translate(-292.319 -176.648)" fill="#535461"/>
  <g id="Group_17" data-name="Group 17" transform="translate(277.251 37.283)" opacity="0.7">
    <path id="Path_330" data-name="Path 330" d="M626.289,265.241l-1.676-.313,3.307-12.153c5.206-39.016-14.462-42.976-21.836-43.11a24.249,24.249,0,0,0-2.59-.787v-4.605a24.446,24.446,0,0,0,18.261-19.738h.064c1.171,0,2.124-1.785,2.124-3.985a5.526,5.526,0,0,0-.927-3.288q.128-1.279.128-2.558a25.405,25.405,0,0,0-7.886-18.414,16.377,16.377,0,0,0-1.8-4.848c-1.81-3.2-4.823-6.511-3.595-9.972l-7.95.819-.077-5.238c-2.482.448-3.524,3.32-5,5.366-3.543,4.925-10.649,5.609-15.351,9.447-1.6,1.279-5.194,5.27-4.509,7.874a25.366,25.366,0,0,0-4.848,14.948q0,1.279.128,2.558a5.526,5.526,0,0,0-.927,3.288c0,2.2.953,3.985,2.124,3.985h.064a24.446,24.446,0,0,0,18.261,19.738v4.605a24.25,24.25,0,0,0-2.59.787c-7.375.134-27.043,4.068-21.836,43.11l3.307,12.153-.787.147a9.063,9.063,0,0,0-7.247,10.573l13.067,69.839a2.744,2.744,0,0,0,3.2,2.194l2.3-.429v1.356a7.624,7.624,0,0,0-4.247,6.831v.864h15.4v-.864a7.624,7.624,0,0,0-3.716-6.543v-3.038l2.1-.39a2.744,2.744,0,0,0,2.194-3.2l-12.242-65.611h33.944l-12.229,65.618a2.744,2.744,0,0,0,2.194,3.2l2.1.39v3.038a7.624,7.624,0,0,0-3.716,6.543v.864h15.4v-.863a7.624,7.624,0,0,0-4.247-6.831V347.24l2.3.429a2.744,2.744,0,0,0,3.2-2.194l13.2-70.716a8.155,8.155,0,0,0-6.524-9.517Z" transform="translate(-562.467 -137.05)" fill="url(#linear-gradient-4)"/>
  </g>
  <rect id="Rectangle_94" data-name="Rectangle 94" width="7.151" height="9.709" transform="translate(296.601 238.576)" fill="#fdb797"/>
  <rect id="Rectangle_95" data-name="Rectangle 95" width="7.151" height="9.709" transform="translate(321.124 238.576)" fill="#fdb797"/>
  <rect id="Rectangle_96" data-name="Rectangle 96" width="47.005" height="16.86" transform="translate(288.939 158.88)" fill="#4d8af0"/>
  <g id="Group_18" data-name="Group 18" transform="translate(288.939 158.88)" opacity="0.05">
    <rect id="Rectangle_97" data-name="Rectangle 97" width="47.005" height="16.86"/>
  </g>
  <path id="Path_331" data-name="Path 331" d="M580.74,330.508s17.538,4.087,23.5,4.087,23.5-4.087,23.5-4.087V327.95h-47Z" transform="translate(-291.801 -168.565)" opacity="0.1"/>
  <path id="Path_332" data-name="Path 332" d="M627.739,302.078s-17.538,4.087-23.5,4.087-23.5-4.087-23.5-4.087v-28.1a23.5,23.5,0,0,1,23.5-23.5h0a23.5,23.5,0,0,1,23.5,23.5Z" transform="translate(-291.801 -140.646)" fill="#f55f44"/>
  <path id="Path_333" data-name="Path 333" d="M479.7,153.34h11.238v13.521a4.867,4.867,0,0,1-4.867,4.867h-1.5a4.867,4.867,0,0,1-4.867-4.867V153.34Z" transform="translate(-172.878 -55.262)" fill="#fdb797"/>
  <path id="Path_334" data-name="Path 334" d="M591.287,413.043l-10.074,1.88a3.307,3.307,0,0,1-3.838-2.642l-12.012-64.371a10.912,10.912,0,0,1,8.724-12.735l2.6-.486a3.307,3.307,0,0,1,3.838,2.642l13.432,71.848a3.307,3.307,0,0,1-2.667,3.863Z" transform="translate(-286.192 -170.975)" fill="#4d8af0"/>
  <path id="Path_335" data-name="Path 335" d="M627.386,413.046l10.074,1.88a3.307,3.307,0,0,0,3.838-2.642l12.216-65.445a9.824,9.824,0,0,0-7.854-11.455l-3.671-.684a3.307,3.307,0,0,0-3.838,2.642l-13.432,71.848a3.307,3.307,0,0,0,2.667,3.857Z" transform="translate(-307.631 -170.978)" fill="#4d8af0"/>
  <path id="Path_336" data-name="Path 336" d="M608.7,240.908a23.518,23.518,0,0,0,11.238,0V232.9H608.7Z" transform="translate(-301.878 -134.31)" opacity="0.1"/>
  <circle id="Ellipse_53" data-name="Ellipse 53" cx="24.523" cy="24.523" r="24.523" transform="translate(287.915 53.12)" fill="#333"/>
  <circle id="Ellipse_54" data-name="Ellipse 54" cx="23.499" cy="23.499" r="23.499" transform="translate(288.939 59.765)" fill="#fdb797"/>
  <path id="Path_337" data-name="Path 337" d="M590.722,157.787c4.522-3.691,11.359-4.349,14.762-9.089,1.414-1.97,2.418-4.74,4.8-5.168l.07,5.04,7.675-.787c-1.183,3.326,1.714,6.524,3.46,9.594a15.773,15.773,0,0,1,2.04,7.426c-2.654,1.593-5.948-.147-8.9-1.075a32.188,32.188,0,0,0-8.955-1.081,18.581,18.581,0,0,0-4.618.256,23.287,23.287,0,0,0-3.838,1.4c-2.034.851-8.462,4.068-10.349,2C584.748,163.953,588.976,159.213,590.722,157.787Z" transform="translate(-293.801 -102.102)" fill="#333"/>
  <path id="Path_338" data-name="Path 338" d="M593.161,182.837a10.778,10.778,0,0,0,4.158,1.279,36.611,36.611,0,0,0,17.839-2,8.7,8.7,0,0,0,5.622,4.752,26.123,26.123,0,0,0,7.535.844,2.789,2.789,0,0,0,1.618-.307c1.132-.761.582-2.514-.077-3.7l-3.275-5.936a17.586,17.586,0,0,0-3.46-4.867,14.389,14.389,0,0,0-6.831-2.936,38.53,38.53,0,0,0-17.538.582C592.63,172.162,584.769,177.759,593.161,182.837Z" transform="translate(-294.96 -111.361)" opacity="0.1"/>
  <path id="Path_339" data-name="Path 339" d="M593.161,182.037a10.778,10.778,0,0,0,4.158,1.279,36.611,36.611,0,0,0,17.839-2,8.7,8.7,0,0,0,5.622,4.752,26.122,26.122,0,0,0,7.535.844,2.789,2.789,0,0,0,1.618-.307c1.132-.761.582-2.514-.077-3.7l-3.275-5.936a17.586,17.586,0,0,0-3.46-4.867,14.389,14.389,0,0,0-6.831-2.936,38.53,38.53,0,0,0-17.538.582C592.63,171.349,584.769,176.965,593.161,182.037Z" transform="translate(-294.96 -111.072)" fill="#333"/>
  <ellipse id="Ellipse_55" data-name="Ellipse 55" cx="2.047" cy="3.831" rx="2.047" ry="3.831" transform="translate(333.641 79.433)" fill="#fdb797"/>
  <ellipse id="Ellipse_56" data-name="Ellipse 56" cx="2.047" cy="3.831" rx="2.047" ry="3.831" transform="translate(287.148 79.433)" fill="#fdb797"/>
  <path id="Path_340" data-name="Path 340" d="M595.076,252.847s-29.729-4.631-23.6,41.351l3.575,13.182,10.234-.409s-6.639-15.351-2.558-25.546S595.076,252.847,595.076,252.847Z" transform="translate(-288.164 -141.452)" fill="#f55f44"/>
  <path id="Path_341" data-name="Path 341" d="M626.12,252.847s29.729-4.631,23.6,41.351L646.14,307.38l-10.234-.409s6.639-15.351,2.558-25.546S626.12,252.847,626.12,252.847Z" transform="translate(-308.156 -141.452)" fill="#f55f44"/>
  <circle id="Ellipse_57" data-name="Ellipse 57" cx="5.622" cy="5.622" r="5.622" transform="translate(286.892 161.937)" fill="#fdb797"/>
  <circle id="Ellipse_58" data-name="Ellipse 58" cx="5.622" cy="5.622" r="5.622" transform="translate(327.763 161.937)" fill="#fdb797"/>
  <path id="Path_342" data-name="Path 342" d="M463.752,381.79h1.976a6.4,6.4,0,0,1,6.4,6.4v1.753H457.33v-1.753a6.4,6.4,0,0,1,6.422-6.4Z" transform="translate(-164.816 -137.592)" fill="#333"/>
  <path id="Path_343" data-name="Path 343" d="M502.892,381.79h1.976a6.4,6.4,0,0,1,6.4,6.4v1.753H496.47v-1.753a6.4,6.4,0,0,1,6.422-6.4Z" transform="translate(-178.922 -137.592)" fill="#333"/>
  <path id="Path_344" data-name="Path 344" d="M588.4,291.21s-2.047,10.726,1.535,15.351" transform="translate(-294.353 -155.324)" opacity="0.1"/>
  <path id="Path_345" data-name="Path 345" d="M645.375,291.21s2.047,10.726-1.535,15.351" transform="translate(-314.542 -155.324)" opacity="0.1"/>
</svg>
