<svg xmlns="http://www.w3.org/2000/svg" width="520.667" height="527.021" viewBox="0 0 520.667 527.021">
  <g id="undraw_browsing_urt9_1_" data-name="undraw_browsing_urt9 (1)" transform="translate(0)">
    <ellipse id="Ellipse_59" data-name="Ellipse 59" cx="68.135" cy="11.068" rx="68.135" ry="11.068" transform="translate(45.325 504.884)" fill="#e6e6e6"/>
    <path id="Path_346" data-name="Path 346" d="M608.218,466.55l-274.2-57.125V143.1L608.218,0Z" transform="translate(-87.551)" fill="#e6e6e6"/>
    <path id="Path_347" data-name="Path 347" d="M607.316,28.288l-274.2,131.238V144.09L607.316,1.227Z" transform="translate(-87.314 -0.322)" fill="#0e3fa6"/>
    <path id="Path_348" data-name="Path 348" d="M595.568,288.587c0,3.552-1.2,7.007-2.662,7.712s-2.625-1.576-2.625-5.078,1.171-6.944,2.625-7.693S595.568,285.036,595.568,288.587Z" transform="translate(-337.119 -142.817)" fill="#e6e6e6"/>
    <path id="Path_349" data-name="Path 349" d="M610,281.443c0,3.453-1.2,6.826-2.662,7.527s-2.626-1.5-2.626-4.911,1.171-6.766,2.626-7.509S610,277.99,610,281.443Z" transform="translate(-340.901 -140.988)" fill="#e6e6e6"/>
    <path id="Path_350" data-name="Path 350" d="M624.43,274.227c0,3.453-1.2,6.826-2.662,7.527s-2.626-1.5-2.626-4.911,1.171-6.766,2.626-7.509S624.43,270.774,624.43,274.227Z" transform="translate(-344.684 -139.096)" fill="#e6e6e6"/>
    <path id="Path_351" data-name="Path 351" d="M549.1,256.448,380.055,295.121V245.8L549.1,186.037Z" transform="translate(-99.617 -48.763)" opacity="0.2"/>
    <path id="Path_352" data-name="Path 352" d="M544.553,251.9,375.509,290.576V241.254l169.044-59.763Z" transform="translate(-98.425 -47.571)" fill="#fff"/>
    <path id="Path_353" data-name="Path 353" d="M660.458,376.334c0,7.946-3.006,15.157-6.655,16.091-3.587.918-6.45-4.592-6.45-12.293s2.863-14.87,6.45-16.031C657.452,362.92,660.458,368.388,660.458,376.334Z" transform="translate(-352.078 -163.932)" opacity="0.2"/>
    <path id="Path_354" data-name="Path 354" d="M657.73,373.606c0,7.946-3.006,15.157-6.655,16.091-3.587.918-6.45-4.592-6.45-12.293s2.863-14.87,6.45-16.031C654.724,360.192,657.73,365.661,657.73,373.606Z" transform="translate(-351.363 -163.217)" fill="#0e3fa6"/>
    <path id="Path_355" data-name="Path 355" d="M520.741,243.443l-81.194,23.445v-8.3l81.194-24.967Z" transform="translate(-115.21 -61.235)" fill="#e6e6e6"/>
    <path id="Path_356" data-name="Path 356" d="M507.307,275.734l-47.918,12.1v-8.573l47.918-12.993Z" transform="translate(-120.411 -69.791)" fill="#e6e6e6"/>
    <path id="Path_357" data-name="Path 357" d="M549.106,470.259l-169.044-14.17v-98.97L549.106,328.9Z" transform="translate(-99.619 -86.208)" opacity="0.2"/>
    <path id="Path_358" data-name="Path 358" d="M543.651,465.714l-169.044-14.17v-98.97l169.044-28.221Z" transform="translate(-98.189 -85.017)" fill="#fff"/>
    <path id="Path_359" data-name="Path 359" d="M409.693,397.363l-7.912.737v-8.648l7.912-.9Z" transform="translate(-105.311 -101.843)" opacity="0.2"/>
    <path id="Path_360" data-name="Path 360" d="M407.875,395.545l-7.912.737v-8.649l7.912-.9Z" transform="translate(-104.835 -101.367)" fill="#0e3fa6"/>
    <path id="Path_361" data-name="Path 361" d="M516.013,381.968l-94.505,8.845v-8.049l94.505-10.617Z" transform="translate(-110.482 -97.544)" fill="#e6e6e6"/>
    <path id="Path_362" data-name="Path 362" d="M516.013,425.426l-94.505,3.059v-8.048l94.505-4.831Z" transform="translate(-110.482 -108.935)" fill="#e6e6e6"/>
    <path id="Path_363" data-name="Path 363" d="M516.013,469.592l-94.505-2.873V458.67l94.505,1.1Z" transform="translate(-110.482 -120.223)" fill="#e6e6e6"/>
    <path id="Path_364" data-name="Path 364" d="M136.938,326.1H118.852v-8.858h15.133l3.322,1.845Z" transform="translate(-31.152 -83.153)" fill="#575a89"/>
    <path id="Path_365" data-name="Path 365" d="M100.843,659.115l.739,13.289,11.073-2.215L110.81,656.9Z" transform="translate(-26.432 -172.182)" fill="#ffb9b9"/>
    <path id="Path_366" data-name="Path 366" d="M418.737,742.269s.369,11.073-.738,14.026,2.953,4.429,2.953,4.429h8.859l5.168.738v-5.537s-5.906-9.228-5.906-14.4S418.737,742.269,418.737,742.269Z" transform="translate(-291.911 -262.348)" fill="#ffb9b9"/>
    <path id="Path_367" data-name="Path 367" d="M348.962,767.065s7.382-3.488,9.966-1.375,12.181,20.2,8.49,21.307c0,0-2.584,4.429-11.443,1.476s-8.859-6.275-8.859-6.275-2.584-2.215-2.584-2.953,1.107-7.382,1.107-7.382.819-5.559,2.071-5.179Z" transform="translate(-272.705 -269.058)" fill="#2f2e41"/>
    <path id="Path_368" data-name="Path 368" d="M418.476,760.116s-1.107-1.107-1.846,0-4.8,15.134-1.107,15.872,9.228,3.322,9.966,2.584a10.113,10.113,0,0,0,1.476-2.584s5.906,2.584,7.751,4.8,23.992,7.013,23.254,0-11.812-12.919-11.812-12.919l-12.181-8.121s-4.8.369-5.906,2.584S419.214,764.177,418.476,760.116Z" transform="translate(-290.912 -267.646)" fill="#2f2e41"/>
    <path id="Path_369" data-name="Path 369" d="M272.288,541.134s-4.06,5.168-3.322,5.537,16.979,4.06,25.838,1.846,27.315-1.846,28.422-4.429,14.765-34.7,14.765-34.7l-4.429-24.362-4.8-6.275-11.073-9.6L295.542,510.5Z" transform="translate(-252.875 -191.511)" fill="#575a89"/>
    <path id="Path_370" data-name="Path 370" d="M272.288,541.134s-4.06,5.168-3.322,5.537,16.979,4.06,25.838,1.846,27.315-1.846,28.422-4.429,14.765-34.7,14.765-34.7l-4.429-24.362-4.8-6.275-11.073-9.6L295.542,510.5Z" transform="translate(-252.875 -191.511)" opacity="0.1"/>
    <path id="Path_371" data-name="Path 371" d="M336.213,551.943s-5.168,18.456,0,43.925.369,31.006,1.476,32.113,1.476.738,1.476,1.846,1.107,6.275,0,8.121-1.107,60.535,2.215,62.011,12.919,5.168,14.765,0,.369-42.448,1.107-44.294.738-6.275.738-7.382,2.215-13.657,2.584-16.979,1.476-9.966,1.476-9.966-.738-26.207,1.476-33.959,2.953-8.49,2.953-8.49L384.2,625.028s-1.476,4.8,0,6.275-.369,1.107,1.107,3.691,2.953,3.322,2.953,4.8-1.476,1.477-.738,2.584a30.191,30.191,0,0,1,1.846,5.168l-1.846,4.429a137.686,137.686,0,0,0,2.584,14.765c1.476,5.537,1.476,28.053,3.322,28.422s16.241,4.429,16.241-4.06-1.107-45.4-1.107-45.4-2.215-5.537-2.215-7.013-.369-2.215.369-2.953,1.476-2.215.369-3.322-.738-2.584-.738-4.06a32.308,32.308,0,0,0-.738-5.906c-.369-1.476-7.382-47.616-7.382-47.616s1.476-5.537,0-5.906-1.476-3.322-1.476-4.8,3.691-19.932-.738-19.932S336.213,551.943,336.213,551.943Z" transform="translate(-269.923 -211.178)" fill="#2f2e41"/>
    <path id="Path_372" data-name="Path 372" d="M264.759,524.682l-5.168,2.584s-18.456,9.966-10.335,15.5,16.241-7.751,16.241-7.751l7.751-5.906Z" transform="translate(-247.191 -206.065)" fill="#ffb9b9"/>
    <path id="Path_373" data-name="Path 373" d="M363.749,387.148s-1.476,16.979-9.228,20.67-2.584,31.375-2.584,31.375l10.7,10.335,18.825-5.537,2.215-12.55,1.846-12.919-4.429-6.644s-5.537-1.476-3.322-16.241S363.749,387.148,363.749,387.148Z" transform="translate(-274.204 -169.668)" fill="#ffb9b9"/>
    <path id="Path_374" data-name="Path 374" d="M347.548,422.324s8.489,28.053,14.4,28.053,9.228-6.644,9.966-14.765,5.537-16.979,5.537-16.979l11.443,10.335s9.228,81.574,8.49,83.789-29.529,4.8-40.972,8.12-22.885.738-22.885-1.107c0-1.644,5.856-15.877,1.4-26.273a43.3,43.3,0,0,1-3.27-11.625c-.69-5.473-1.33-12.095-.714-14.148,1.107-3.691,7.013-42.817,7.013-42.817Z" transform="translate(-269.077 -178.268)" fill="#0e3fa6"/>
    <path id="Path_375" data-name="Path 375" d="M337.671,409.819s-6.619,3.54-9.572,5.017-21.04,5.906-21.409,8.121,2.584,33.22,1.107,36.542-16.241,32.851-16.241,32.851l-.738,6.275s-24.362,29.16-21.409,32.482,14.026-10.335,14.026-10.335,24.731-39.5,25.469-40.972,15.872-28.791,18.087-29.529,7.382-31.744,8.121-33.22S338.753,409.232,337.671,409.819Z" transform="translate(-252.95 -175.948)" fill="#575a89"/>
    <path id="Path_376" data-name="Path 376" d="M308.1,427.137h-2.214s-8.121,31.006-10.335,35.066-2.584,10.7-2.953,11.812-1.846.738-2.215,3.322-4.06,5.906-7.013,7.382-16.241,14.026-15.872,14.4,4.429,13.288,7.013,13.288,12.919-12.55,14.026-12.55,5.906-4.429,6.644-4.8S314.741,459.988,314,451.5,308.1,427.137,308.1,427.137Z" transform="translate(-252.511 -180.497)" fill="#575a89"/>
    <path id="Path_377" data-name="Path 377" d="M444.068,556.734l4.547,3.565s16.09,13.455,7.026,17.256-14.363-10.843-14.363-10.843l-6.414-7.337Z" transform="translate(-296.382 -214.466)" fill="#ffb9b9"/>
    <path id="Path_378" data-name="Path 378" d="M386.941,410.426a46.426,46.426,0,0,1,7.1,4.21c2.215,1.846,19.194,6.644,19.194,8.121s-1.846,24.362-1.846,24.362l2.584,40.6s3.691,45.77,4.429,46.878,1.846,7.013,0,7.013-11.073-10.335-10.7-15.5,2.953-16.979.369-19.932S393.3,453.763,393.3,450.81s-5.168-32.482-4.8-33.22S386.941,410.426,386.941,410.426Z" transform="translate(-283.821 -176.117)" fill="#575a89"/>
    <path id="Path_379" data-name="Path 379" d="M414.8,426.637l5.537.369L434,482.742s1.107,7.013,1.476,7.751,5.906,32.851,3.691,33.959-9.6,5.168-9.966,2.584-4.06-16.979-7.751-20.3-7.382-60.535-7.382-60.535Z" transform="translate(-290.93 -180.366)" fill="#575a89"/>
    <circle id="Ellipse_60" data-name="Ellipse 60" cx="15.134" cy="15.134" r="15.134" transform="translate(86.592 197.179)" fill="#ffb9b9"/>
    <path id="Path_380" data-name="Path 380" d="M365.312,373.853a2.65,2.65,0,0,1,3.119,1.048,14.771,14.771,0,0,1,21.469-9.98v-1.539A12.781,12.781,0,0,0,377.119,350.6h-3.072a24.011,24.011,0,0,0-24.011,24.011V378.9a21.528,21.528,0,0,0,11.791,19.2l13.819-7.318a14.772,14.772,0,0,1-7.4-10.975c-1.17.511-2.736-.316-3.551-1.9C363.857,376.273,364.133,374.459,365.312,373.853Z" transform="translate(-274.148 -160.436)" fill="#2f2e41"/>
  </g>
</svg>
