<svg xmlns="http://www.w3.org/2000/svg" width="654.818" height="443.118" viewBox="0 0 654.818 443.118">
  <g id="undraw_Checklist__re_2w7v" transform="translate(0 0)">
    <path id="Path_566" data-name="Path 566" d="M869.543,334.319c-.687.565-1.375,1.1-2.079,1.637H693.849q-1.94-.8-3.863-1.637a204.442,204.442,0,0,1-50.634-31.525c-10.124-8.577-19.437-17.432-26.189-25.73-9.42-11.58-18.095-24.2-22.129-38.579S588.21,207.623,597.2,195.7a38.3,38.3,0,0,1,10.107-9.256c.647-.409,1.3-.8,1.972-1.17,10.787-6.056,24.4-7.529,36.542-4.395,17.391,4.493,31.844,17.039,42.156,31.754s17.007,31.6,23.6,48.3c6.695-29.814,26.966-56.519,54.35-70.1s61.388-13.414,88.182,1.293a88.626,88.626,0,0,1,22.547,17.759c.646.7,1.277,1.408,1.9,2.128,13.07,15.132,21.246,34.512,21.917,54.5C901.337,292.262,889.405,318.123,869.543,334.319Z" transform="translate(-270.564 -179.277)" fill="#f2f2f2"/>
    <path id="Path_567" data-name="Path 567" d="M704.884,337.228h-2.455c-.032-.548-.073-1.088-.123-1.637a183.47,183.47,0,0,0-5.369-31.7,195.451,195.451,0,0,0-31.353-65.848,187.085,187.085,0,0,0-53.605-49.48,1.162,1.162,0,0,1-.573-.843,1.224,1.224,0,0,1,1.809-1.277,1.837,1.837,0,0,1,.163.106,185.332,185.332,0,0,1,32.834,25.468,197.15,197.15,0,0,1,42.319,60.668,191.17,191.17,0,0,1,16.221,62.91C704.8,336.139,704.843,336.687,704.884,337.228Z" transform="translate(-274.659 -180.549)" fill="#fff"/>
    <path id="Path_568" data-name="Path 568" d="M903.794,218.757a.151.151,0,0,1-.057.016c-1.792.327-3.593.671-5.377,1.039a242.931,242.931,0,0,0-42.827,13,252.732,252.732,0,0,0-39.692,20.46,256.807,256.807,0,0,0-35.559,27.073,251.675,251.675,0,0,0-30.273,32.834,243.464,243.464,0,0,0-18.5,27.875c-.311.54-.614,1.089-.917,1.637h-2.807c.294-.548.6-1.1.908-1.637a245.453,245.453,0,0,1,22.9-33.824A254.4,254.4,0,0,1,782.941,274.7a260.118,260.118,0,0,1,36.32-26.418,255.225,255.225,0,0,1,40.527-19.772A243.153,243.153,0,0,1,901.9,216.629l1.195-.221C904.62,216.13,905.275,218.437,903.794,218.757Z" transform="translate(-295.796 -186.016)" fill="#fff"/>
    <path id="Path_569" data-name="Path 569" d="M368.881,368.094c4.366-8.242,5.087-18.976-.342-26.56-3.232-4.514-8.277-7.478-13.572-9.149s-10.879-2.163-16.416-2.569c-5.481-.4-11.06-.724-16.414.516s-10.54,4.268-13.149,9.106c-4.406,8.172-.392,18.651-3.629,27.353-2.97,7.986-11.423,12.654-19.732,14.539s-16.982,1.684-25.3,3.549-16.78,6.491-19.8,14.457c-2.186,5.76-1.1,12.4,1.78,17.842s7.391,9.856,12.179,13.734c7.143,5.785,15.5,10.739,24.677,11.24,9.67.528,19.126-4.075,26.086-10.809s11.7-15.437,15.485-24.351c2.4-5.655,4.671-11.741,9.484-15.56,3.537-2.806,8.035-4.035,12.4-5.2l4.94-1.317a33.915,33.915,0,0,0,21.192-16.575Z" transform="translate(-207.1 -206.55)" fill="#2f2e41"/>
    <path id="Path_570" data-name="Path 570" d="M146.793,520.077H136.761l-4.774-38.7H146.8Z" transform="translate(-23.969 -87.419)" fill="#ffb8b8"/>
    <path id="Path_571" data-name="Path 571" d="M126.359,525.162h19.35v12.183H114.176a12.183,12.183,0,0,1,12.183-12.183Z" transform="translate(-20.735 -95.37)" fill="#2f2e41"/>
    <path id="Path_572" data-name="Path 572" d="M248.793,520.077H238.761l-4.774-38.7H248.8Z" transform="translate(-42.493 -87.419)" fill="#ffb8b8"/>
    <path id="Path_573" data-name="Path 573" d="M228.359,525.162h19.35v12.183H216.176a12.183,12.183,0,0,1,12.183-12.183Z" transform="translate(-39.258 -95.37)" fill="#2f2e41"/>
    <path id="Path_574" data-name="Path 574" d="M363.673,635.105a3.986,3.986,0,0,1-.419-.022l-40.82-4.374A3.839,3.839,0,0,1,319.109,626l36.142-137.466a3.862,3.862,0,0,1,2.9-2.858l33.528-9.346a3.864,3.864,0,0,1,3.723,1.213c21.557,24.315,37.8,78.215,50.108,146.154a3.84,3.84,0,0,1-3.291,4.493l-33.446,4.27a3.829,3.829,0,0,1-4.232-2.968L388.27,556.944a2.986,2.986,0,0,0-5.841.067l-15,75.007A3.819,3.819,0,0,1,363.673,635.105Z" transform="translate(-221.562 -233.207)" fill="#2f2e41"/>
    <circle id="Ellipse_99" data-name="Ellipse 99" cx="20.101" cy="20.101" r="20.101" transform="translate(115.802 140.219)" fill="#ffb8b8"/>
    <path id="Path_575" data-name="Path 575" d="M361.7,476.4a3.831,3.831,0,0,1-3.7-2.852l-12.092-45.429a13.731,13.731,0,0,1,8.274-16.339c9.734-3.8,19.008-5.209,27.564-4.191h0c7.6.906,16.985,45.927,16.365,46.888l3,9a3.839,3.839,0,0,1-2.817,4.963l-35.76,7.867A3.873,3.873,0,0,1,361.7,476.4Z" transform="translate(-226.363 -220.68)" fill="#ccc"/>
    <path id="Path_576" data-name="Path 576" d="M374.09,542.2a6.228,6.228,0,0,0-6.03-7.406l-6.967-21.008-7.121,9.032,7.708,18.565a6.262,6.262,0,0,0,12.41.817Z" transform="translate(-227.912 -240.025)" fill="#ffb8b8"/>
    <path id="Path_577" data-name="Path 577" d="M481.835,483.636a6.228,6.228,0,0,0-9.318-2.1l-18.46-12.212-.017,11.5,17.532,9.833a6.262,6.262,0,0,0,10.262-7.027Z" transform="translate(-246.084 -231.951)" fill="#ffb8b8"/>
    <path id="Path_578" data-name="Path 578" d="M356.05,514.845a3.838,3.838,0,0,1-3.645-2.633l-16.333-34.55a19.969,19.969,0,0,1-1.011-6.276l4.91-44.907a9.869,9.869,0,0,1,19.666-1.191l-7.513,51.257L364.114,508a3.831,3.831,0,0,1-2.028,4.276l-4.32,2.16A3.835,3.835,0,0,1,356.05,514.845Z" transform="translate(-224.478 -222.377)" fill="#ccc"/>
    <path id="Path_579" data-name="Path 579" d="M450.883,477a3.83,3.83,0,0,1-1.731-.412l-32.48-16.406a19.942,19.942,0,0,1-5.147-3.732l-31.7-31.8a9.869,9.869,0,0,1,13.088-14.726l34.342,38.14,27.222,17.284a3.83,3.83,0,0,1,1.582,4.46l-1.534,4.579a3.84,3.84,0,0,1-3.64,2.618Z" transform="translate(-232.083 -220.779)" fill="#ccc"/>
    <path id="Path_580" data-name="Path 580" d="M338.061,359.565a23.406,23.406,0,0,0,13.827,8.7,24.446,24.446,0,0,0,16.417-2.352c4.048-2.187,7.288-5.47,10.461-8.7,1.324-1.349,2.735-2.9,2.668-4.745-.1-2.851-3.531-4.41-6.472-5.032a46.186,46.186,0,0,0-28.671,3.224c-3.994,1.855-8.155,5.211-7.555,9.384" transform="translate(-225.022 -209.638)" fill="#2f2e41"/>
    <path id="Path_581" data-name="Path 581" d="M892.441,368.723H497.974a13.932,13.932,0,0,0-13.913,13.913V534.858a13.932,13.932,0,0,0,13.913,13.913H892.441a13.932,13.932,0,0,0,13.913-13.913V382.636A13.932,13.932,0,0,0,892.441,368.723Zm12.276,166.135a12.291,12.291,0,0,1-12.276,12.276H497.974A12.291,12.291,0,0,1,485.7,534.858V382.636a12.291,12.291,0,0,1,12.276-12.276H892.441a12.291,12.291,0,0,1,12.276,12.276Z" transform="translate(-251.536 -213.681)" fill="#3f3d56"/>
    <path id="Path_582" data-name="Path 582" d="M578.042,515.657a47.467,47.467,0,1,1,47.467-47.467A47.467,47.467,0,0,1,578.042,515.657Zm0-93.3a45.83,45.83,0,1,0,45.83,45.83A45.83,45.83,0,0,0,578.042,422.36Z" transform="translate(-259.983 -223.124)" fill="#3f3d56"/>
    <path id="Path_583" data-name="Path 583" d="M895.827,441.723H706.777a10.227,10.227,0,0,0-10.214,9.829,3.283,3.283,0,0,0-.016.4,10.244,10.244,0,0,0,10.23,10.23h189.05a10.23,10.23,0,0,0,0-20.46Z" transform="translate(-290.124 -226.938)" fill="#0e3fa6"/>
    <path id="Path_584" data-name="Path 584" d="M895.827,490.723H706.777a10.227,10.227,0,0,0-10.214,9.829,3.283,3.283,0,0,0-.016.4,10.244,10.244,0,0,0,10.23,10.23h189.05a10.23,10.23,0,0,0,0-20.46Z" transform="translate(-290.124 -235.836)" fill="#0e3fa6"/>
    <path id="Path_585" data-name="Path 585" d="M577.67,494.129a6.1,6.1,0,0,1-3.674-1.22l-.066-.049L560.1,482.268a6.146,6.146,0,0,1,7.476-9.758l8.961,6.871,21.176-27.616a6.146,6.146,0,0,1,8.617-1.138l-.132.179.135-.176a6.153,6.153,0,0,1,1.137,8.617L582.56,491.731a6.149,6.149,0,0,1-4.89,2.4Z" transform="translate(-264.907 -228.325)" fill="#0e3fa6"/>
    <path id="Path_586" data-name="Path 586" d="M512.567,720.36H200.757a.818.818,0,1,1,0-1.637h311.81a.818.818,0,0,1,0,1.637Z" transform="translate(-199.939 -277.242)" fill="#3f3d56"/>
    <path id="Path_587" data-name="Path 587" d="M855.582,323.336a162.23,162.23,0,0,0-51.432,1.16,165.6,165.6,0,0,0-48.427,16.931,159.754,159.754,0,0,0-24.167,15.966c-1.234.986.513,2.713,1.736,1.736a158.612,158.612,0,0,1,44.019-24.745,163.39,163.39,0,0,1,49.156-9.972,156.378,156.378,0,0,1,28.461,1.291,1.272,1.272,0,0,0,1.51-.857,1.235,1.235,0,0,0-.857-1.51Z" transform="translate(-296.405 -205.164)" fill="#fff"/>
  </g>
</svg>
